<svg width="340" height="21" viewBox="0 0 340 21" fill="none" xmlns="http://www.w3.org/2000/svg">
<g clip-path="url(#clip0_1_1139)">
<g clip-path="url(#clip1_1_1139)">
<path fill-rule="evenodd" clip-rule="evenodd" d="M144.402 2.76121C128.428 3.40057 112.643 4.18672 97.249 5.04618C75.4574 6.26201 53.6744 7.51978 32.0226 9.51122C25.2071 10.1401 18.2859 10.5384 11.513 11.3245C7.26139 11.8171 1.62388 12.5192 0.884026 12.666C0.497052 12.7498 0.328229 12.8757 0.273678 12.9176C-0.109886 13.2111 -0.0398999 13.494 0.176601 13.7141C0.263542 13.8084 0.48339 14.0391 1.09368 14.0706C41.9083 16.2192 83.6435 12.0267 124.508 11.5865C195.373 10.8318 268.387 13.8295 338.69 20.3698C339.303 20.4222 339.9 20.1601 339.985 19.7723C340.088 19.395 339.644 19.0281 339.031 18.9757C268.608 12.4249 195.475 9.41678 124.473 10.1819C86.3898 10.5907 47.5544 14.2697 9.41787 13.0119C10.2941 12.9071 11.1533 12.8023 11.9375 12.7079C18.6831 11.9218 25.5753 11.5341 32.3636 10.9052C53.9693 8.91374 75.708 7.65599 97.4706 6.45064C124.474 4.94134 152.653 3.64165 181.053 3.03373C191.214 3.12806 201.34 3.22244 211.466 3.33773C233.371 3.58928 255.38 4.32298 277.234 5.30822C283.815 5.61217 290.395 5.92659 296.975 6.1991C299.157 6.29343 304.783 6.5659 305.567 6.54494C306.539 6.52397 306.726 6.02092 306.743 5.93707C306.794 5.7484 306.76 5.48636 306.283 5.26625C306.232 5.23481 305.925 5.12993 305.243 5.06704C265.506 1.35666 223.075 0.738365 181.088 1.62927C136.799 1.24147 92.3393 1.07369 48.163 0.895508C47.5305 0.895508 47.014 1.20999 47.0089 1.5978C47.0055 1.98561 47.5151 2.3001 48.1476 2.31059C80.1351 2.43636 112.285 2.56206 144.402 2.76121Z" fill="black"/>
</g>
</g>
<defs>
<clipPath id="clip0_1_1139">
<rect width="340" height="20" fill="white" transform="translate(0 0.867188)"/>
</clipPath>
<clipPath id="clip1_1_1139">
<rect width="340" height="20" fill="white" transform="translate(0 0.867188)"/>
</clipPath>
</defs>
</svg>
