<svg width="45" height="49" viewBox="0 0 45 49" fill="none" xmlns="http://www.w3.org/2000/svg">
<g clip-path="url(#clip0_1_1207)">
<g clip-path="url(#clip1_1_1207)">
<path fill-rule="evenodd" clip-rule="evenodd" d="M14.7449 45.0804C10.5374 43.8996 6.13219 43.304 1.85888 42.7584C0.938471 42.644 0.0839346 43.2824 0.0181912 44.1817C-0.113296 45.0818 0.544524 45.9048 1.39918 46.0192C5.54102 46.5445 9.81392 47.1067 13.8243 48.2433C14.679 48.4898 15.5998 47.9823 15.8627 47.1093C16.1257 46.2368 15.5996 45.3276 14.7449 45.0804Z" fill="black"/>
<path fill-rule="evenodd" clip-rule="evenodd" d="M27.5001 28.3409C20.7285 21.4306 13.1024 15.4099 6.46228 8.31422C5.87058 7.65152 4.81869 7.61601 4.16126 8.23467C3.50382 8.85397 3.43834 9.89531 4.09577 10.558C10.7358 17.6741 18.3621 23.7146 25.1337 30.6453C25.7911 31.2922 26.8427 31.3014 27.5001 30.6649C28.0918 30.0292 28.1576 28.9879 27.5001 28.3409Z" fill="black"/>
<path fill-rule="evenodd" clip-rule="evenodd" d="M40.1892 1.76019C40.3864 5.7153 40.5832 9.67042 40.7805 13.6262C40.7805 14.5322 41.5698 15.2317 42.4902 15.1876C43.4106 15.1429 44.0676 14.3717 44.0676 13.4652C43.8704 9.50344 43.6735 5.5424 43.4763 1.58136C43.4106 0.675414 42.6215 -0.0194939 41.7012 0.0298136C40.8464 0.0791212 40.1234 0.854896 40.1892 1.76019Z" fill="black"/>
</g>
</g>
<defs>
<clipPath id="clip0_1_1207">
<rect width="45" height="48.91" fill="white"/>
</clipPath>
<clipPath id="clip1_1_1207">
<rect width="44.9972" height="48.91" fill="white" transform="translate(0.00140381)"/>
</clipPath>
</defs>
</svg>
