<svg width="42" height="41" viewBox="0 0 42 41" fill="none" xmlns="http://www.w3.org/2000/svg">
<path d="M6.1728 10.6546L11.2924 26.7478H11.4889L16.6189 10.6546H21.5834L14.2815 31.8364H8.51024L1.19796 10.6546H6.1728ZM35.3036 16.7464C35.2208 15.9121 34.8658 15.264 34.2383 14.802C33.6108 14.34 32.7593 14.1091 31.6837 14.1091C30.9528 14.1091 30.3357 14.2125 29.8323 14.4193C29.329 14.6193 28.9428 14.8986 28.6739 15.2571C28.4119 15.6156 28.2809 16.0225 28.2809 16.4775C28.2671 16.8568 28.3464 17.1877 28.5188 17.4704C28.6981 17.7531 28.9428 17.9979 29.2531 18.2048C29.5634 18.4047 29.9219 18.5806 30.3288 18.7322C30.7356 18.877 31.17 19.0012 31.6319 19.1046L33.535 19.5597C34.4589 19.7665 35.307 20.0423 36.0793 20.3871C36.8515 20.7318 37.5204 21.1559 38.0858 21.6592C38.6512 22.1626 39.089 22.7555 39.3993 23.4382C39.7165 24.1208 39.8785 24.9034 39.8854 25.786C39.8785 27.0822 39.5475 28.2061 38.8925 29.1577C38.2444 30.1023 37.3066 30.8366 36.0793 31.3607C34.8589 31.8778 33.3867 32.1364 31.663 32.1364C29.953 32.1364 28.4636 31.8743 27.1949 31.3503C25.9331 30.8263 24.9471 30.0506 24.2369 29.0232C23.5336 27.9889 23.1647 26.7099 23.1303 25.1861H27.4638C27.5121 25.8963 27.7155 26.4893 28.0741 26.965C28.4395 27.4339 28.9256 27.789 29.5324 28.0303C30.146 28.2648 30.839 28.382 31.6113 28.382C32.3697 28.382 33.0282 28.2716 33.5867 28.051C34.1521 27.8304 34.5899 27.5235 34.9002 27.1305C35.2105 26.7375 35.3656 26.2859 35.3656 25.7756C35.3656 25.2998 35.2243 24.8999 34.9416 24.5759C34.6658 24.2518 34.259 23.976 33.7212 23.7484C33.1902 23.5209 32.5386 23.3141 31.7664 23.1279L29.46 22.5487C27.6741 22.1143 26.2641 21.4351 25.2298 20.5112C24.1955 19.5872 23.6819 18.3427 23.6888 16.7775C23.6819 15.495 24.0232 14.3745 24.7127 13.4161C25.4091 12.4577 26.3641 11.7096 27.5776 11.1717C28.7911 10.6339 30.1702 10.365 31.7147 10.365C33.2868 10.365 34.6589 10.6339 35.8311 11.1717C37.0101 11.7096 37.9272 12.4577 38.5822 13.4161C39.2373 14.3745 39.5751 15.4846 39.5958 16.7464H35.3036Z" fill="white"/>
</svg>
