<svg width="33" height="33" viewBox="0 0 33 33" fill="none" xmlns="http://www.w3.org/2000/svg">
<g clip-path="url(#clip0_1_1425)">
<g clip-path="url(#clip1_1_1425)">
<g style="mix-blend-mode:luminosity">
<path d="M26.7317 11.5853C26.614 11.654 23.8136 13.1023 23.8136 16.3135C23.9455 19.9757 27.3476 21.26 27.406 21.26C27.3476 21.3286 26.8924 23.0095 25.5438 24.7715C24.4735 26.2893 23.2856 27.8196 21.4817 27.8196C19.7659 27.8196 19.1499 26.8081 17.1701 26.8081C15.0439 26.8081 14.4423 27.8196 12.8144 27.8196C11.0105 27.8196 9.7346 26.2074 8.60599 24.7038C7.13976 22.7359 5.89351 19.6477 5.84951 16.6824C5.81986 15.1112 6.14314 13.5666 6.96377 12.2547C8.12203 10.4231 10.1899 9.17983 12.4481 9.13883C14.1783 9.08446 15.7182 10.2458 16.7741 10.2458C17.786 10.2458 19.6779 9.13883 21.8184 9.13883C22.7423 9.13972 25.2061 9.39908 26.7317 11.5853ZM16.6278 8.8251C16.3198 7.39017 17.1701 5.95524 17.962 5.03992C18.9739 3.93297 20.5722 3.18164 21.9504 3.18164C22.0384 4.61657 21.4808 6.02387 20.4842 7.04882C19.5899 8.15577 18.05 8.9891 16.6278 8.8251Z" fill="white"/>
</g>
</g>
</g>
<defs>
<clipPath id="clip0_1_1425">
<rect width="32" height="32" fill="white" transform="translate(0.628906 0.5)"/>
</clipPath>
<clipPath id="clip1_1_1425">
<rect width="32" height="32" fill="white" transform="translate(0.628906 0.5)"/>
</clipPath>
</defs>
</svg>
