<svg width="33" height="33" viewBox="0 0 33 33" fill="none" xmlns="http://www.w3.org/2000/svg">
<g clip-path="url(#clip0_1_1482)">
<g clip-path="url(#clip1_1_1482)">
<g style="mix-blend-mode:luminosity">
<path d="M16.1028 2.50443C16.1028 2.50443 24.355 2.13544 28.7301 10.4005H15.4006C15.4006 10.4005 12.8851 10.3197 10.7363 13.3605C10.119 14.6369 9.4555 15.9516 10.2001 18.5426C9.12747 16.7319 4.50562 8.71295 4.50562 8.71295C4.50562 8.71295 7.76571 2.83118 16.1028 2.50443Z" fill="#EF3F36"/>
<path d="M28.3017 23.4865C28.3017 23.4865 24.4938 30.7944 15.1267 30.433C16.2841 28.4378 21.7933 18.9311 21.7933 18.9311C21.7933 18.9311 23.1243 16.8014 21.5541 13.4262C20.7554 12.2537 19.9414 11.0274 17.318 10.3737C19.4284 10.3546 28.7068 10.3737 28.7068 10.3737C28.7068 10.3737 32.1828 16.1287 28.3017 23.4865Z" fill="#FCD900"/>
<path d="M3.96161 23.5438C3.96161 23.5438 -0.486696 16.6049 4.51325 8.70117C5.66682 10.6964 11.176 20.2032 11.176 20.2032C11.176 20.2032 12.3643 22.4175 16.0795 22.748C17.4955 22.6442 18.9692 22.5558 20.852 20.6222C19.814 22.4521 15.1574 30.4481 15.1574 30.4481C15.1574 30.4481 8.41374 30.5711 3.96161 23.5438Z" fill="#61BC5B"/>
<path d="M15.1228 30.5014L16.9978 22.7053C16.9978 22.7053 19.058 22.5438 20.7865 20.6562C19.7138 22.5362 15.1228 30.5014 15.1228 30.5014Z" fill="#5AB055"/>
<path d="M9.82202 16.589C9.82202 13.1523 12.6191 10.3652 16.0681 10.3652C19.5171 10.3652 22.3142 13.1523 22.3142 16.589C22.3142 20.0257 19.5171 22.8127 16.0681 22.8127C12.6191 22.8089 9.82202 20.0257 9.82202 16.589Z" fill="white"/>
<path d="M10.8689 16.5902C10.8689 13.7302 13.1954 11.4082 16.0696 11.4082C18.9399 11.4082 21.2702 13.7263 21.2702 16.5902C21.2702 19.4504 18.9439 21.7724 16.0696 21.7724C13.1992 21.7724 10.8689 19.4504 10.8689 16.5902Z" fill="url(#paint0_linear_1_1482)"/>
<path d="M28.703 10.3782L20.9831 12.6347C20.9831 12.6347 19.818 10.9316 17.3142 10.3782C19.4863 10.3666 28.703 10.3782 28.703 10.3782Z" fill="#EACA05"/>
<path d="M10.0496 18.2582C8.96543 16.386 4.50562 8.71289 4.50562 8.71289L10.2232 14.3485C10.2232 14.3485 9.63671 15.5518 9.85671 17.274L10.0496 18.2582Z" fill="#DF3A32"/>
</g>
</g>
</g>
<defs>
<linearGradient id="paint0_linear_1_1482" x1="16.0694" y1="11.4814" x2="16.0694" y2="21.4604" gradientUnits="userSpaceOnUse">
<stop stop-color="#86BBE5"/>
<stop offset="1" stop-color="#1072BA"/>
</linearGradient>
<clipPath id="clip0_1_1482">
<rect width="32" height="32" fill="white" transform="translate(0.103271 0.5)"/>
</clipPath>
<clipPath id="clip1_1_1482">
<rect width="32" height="32" fill="white" transform="translate(0.103271 0.5)"/>
</clipPath>
</defs>
</svg>
