<svg width="33" height="33" viewBox="0 0 33 33" fill="none" xmlns="http://www.w3.org/2000/svg">
<g clip-path="url(#clip0_1_1645)">
<g style="mix-blend-mode:luminosity">
<path d="M29.4788 11.2265C28.8699 9.7574 27.6356 8.17139 26.6667 7.67039C27.4553 9.22015 27.9115 10.7746 28.0859 11.9344C28.0859 11.9344 28.0859 11.9426 28.0888 11.9578C26.5039 7.99777 23.816 6.40065 21.621 2.92407C21.5096 2.74869 21.3988 2.57331 21.2903 2.38566C21.229 2.27985 21.1794 2.18397 21.1363 2.09336C21.0453 1.91757 20.975 1.73179 20.9269 1.53975C20.9273 1.53063 20.9242 1.52169 20.9184 1.51467C20.9126 1.50765 20.9044 1.50305 20.8954 1.50175C20.8868 1.49942 20.8777 1.49942 20.8691 1.50175C20.8668 1.50281 20.8646 1.50419 20.8627 1.50584C20.8592 1.50584 20.8557 1.50994 20.8522 1.5111L20.858 1.5035C17.3366 3.57063 16.1419 7.39446 16.0323 9.30784C14.6251 9.40428 13.2796 9.92358 12.1713 10.798C12.0555 10.6998 11.9344 10.6081 11.8085 10.5232C11.4891 9.4027 11.4756 8.21683 11.7694 7.08931C10.3292 7.74697 9.20923 8.78463 8.39492 9.70303H8.38851C7.83261 8.99742 7.87169 6.67015 7.90319 6.18435C7.89677 6.15395 7.48904 6.39656 7.43654 6.43339C6.94601 6.7841 6.48748 7.17771 6.06633 7.6096C5.58708 8.09655 5.14924 8.62276 4.75737 9.18274C3.8558 10.4632 3.21642 11.9101 2.87618 13.4398C2.86977 13.4702 2.86393 13.5017 2.85752 13.5327C2.83127 13.6561 2.73619 14.2751 2.71927 14.4096V14.4406C2.59532 15.0803 2.51812 15.7282 2.48828 16.3791V16.451C2.48828 24.2097 8.76474 30.5 16.5065 30.5C23.4404 30.5 29.1971 25.4549 30.3247 18.828C30.348 18.6485 30.3672 18.4673 30.3882 18.286C30.6671 15.8763 30.3573 13.3439 29.4788 11.2265ZM13.321 22.2239C13.3864 22.2549 13.4482 22.2894 13.5153 22.3198L13.5246 22.3256C13.4575 22.2929 13.3887 22.259 13.321 22.2239ZM28.09 11.9642V11.9508V11.966V11.9642Z" fill="url(#paint0_linear_1_1645)"/>
<path d="M29.477 11.226C28.8681 9.75692 27.6338 8.17092 26.6649 7.66992C27.4535 9.21968 27.9097 10.7741 28.0841 11.9339V11.9626C29.4071 15.5567 28.6861 19.2116 27.6478 21.4447C26.0413 24.8997 22.1524 28.4411 16.0643 28.2687C9.49214 28.0816 3.69808 23.188 2.61603 16.7837C2.41887 15.773 2.61603 15.2603 2.71519 14.4401C2.59445 15.072 2.54836 15.255 2.48828 16.3786V16.4505C2.48828 24.2093 8.76475 30.4995 16.5065 30.4995C23.4403 30.4995 29.1971 25.4544 30.3246 18.8275C30.3479 18.648 30.3672 18.4668 30.3882 18.2856C30.6653 15.8759 30.3555 13.3434 29.477 11.226Z" fill="url(#paint1_radial_1_1645)"/>
<path d="M29.477 11.226C28.8681 9.75692 27.6338 8.17092 26.6649 7.66992C27.4535 9.21968 27.9097 10.7741 28.0841 11.9339V11.9626C29.4071 15.5567 28.6861 19.2116 27.6478 21.4447C26.0413 24.8997 22.1524 28.4411 16.0643 28.2687C9.49214 28.0816 3.69808 23.188 2.61603 16.7837C2.41887 15.773 2.61603 15.2603 2.71519 14.4401C2.59445 15.072 2.54836 15.255 2.48828 16.3786V16.4505C2.48828 24.2093 8.76475 30.4995 16.5065 30.4995C23.4403 30.4995 29.1971 25.4544 30.3246 18.8275C30.3479 18.648 30.3672 18.4668 30.3882 18.2856C30.6653 15.8759 30.3555 13.3434 29.477 11.226Z" fill="url(#paint2_radial_1_1645)"/>
<path d="M22.6659 12.8778C22.6968 12.8994 22.7242 12.9211 22.7534 12.9427C22.4016 12.3166 21.9632 11.7435 21.4514 11.2404C17.0941 6.87341 20.3092 1.77107 20.8511 1.51151L20.8569 1.50391C17.3355 3.57104 16.1409 7.39487 16.0312 9.30825C16.1945 9.29714 16.3572 9.28311 16.5235 9.28311C19.1513 9.28311 21.4403 10.7318 22.6659 12.8778Z" fill="url(#paint3_radial_1_1645)"/>
<path d="M16.5339 13.7498C16.5112 14.1006 15.2792 15.3049 14.8482 15.3049C10.8618 15.3049 10.2148 17.7216 10.2148 17.7216C10.3898 19.7571 11.805 21.4332 13.517 22.32C13.5952 22.3603 13.6739 22.3966 13.7504 22.4328C13.8874 22.4913 14.0251 22.5497 14.1622 22.6018C14.7493 22.8093 15.3641 22.9275 15.9862 22.9525C22.9731 23.2811 24.3276 14.58 19.2848 12.0534C20.5757 11.8283 21.9162 12.3492 22.6646 12.8759C21.4396 10.7298 19.1501 9.28125 16.5223 9.28125C16.356 9.28125 16.1933 9.29528 16.0299 9.30638C14.6238 9.40402 13.2796 9.9239 12.1725 10.7982C12.3866 10.98 12.6281 11.2221 13.1361 11.7236C14.0893 12.666 16.5287 13.6358 16.5339 13.7498Z" fill="url(#paint4_radial_1_1645)"/>
<path d="M16.5339 13.7498C16.5112 14.1006 15.2792 15.3049 14.8482 15.3049C10.8618 15.3049 10.2148 17.7216 10.2148 17.7216C10.3898 19.7571 11.805 21.4332 13.517 22.32C13.5952 22.3603 13.6739 22.3966 13.7504 22.4328C13.8874 22.4913 14.0251 22.5497 14.1622 22.6018C14.7493 22.8093 15.3641 22.9275 15.9862 22.9525C22.9731 23.2811 24.3276 14.58 19.2848 12.0534C20.5757 11.8283 21.9162 12.3492 22.6646 12.8759C21.4396 10.7298 19.1501 9.28125 16.5223 9.28125C16.356 9.28125 16.1933 9.29528 16.0299 9.30638C14.6238 9.40402 13.2796 9.9239 12.1725 10.7982C12.3866 10.98 12.6281 11.2221 13.1361 11.7236C14.0893 12.666 16.5287 13.6358 16.5339 13.7498Z" fill="url(#paint5_radial_1_1645)"/>
<path d="M11.5204 10.3314C11.6341 10.4051 11.7275 10.467 11.812 10.5238C11.4927 9.40323 11.4792 8.21736 11.773 7.08984C10.3327 7.7475 9.21275 8.78516 8.39844 9.70356C8.46435 9.7018 10.4978 9.66497 11.5204 10.3314Z" fill="url(#paint6_radial_1_1645)"/>
<path d="M2.61896 16.7846C3.70101 23.1888 9.49507 28.0824 16.072 28.2695C22.16 28.442 26.0467 24.9005 27.6554 21.4455C28.6937 19.2118 29.4147 15.5575 28.0918 11.9634V11.9365C28.0918 11.94 28.0918 11.9447 28.0947 11.9599C28.5917 15.2143 26.9403 18.3671 24.3585 20.4991C24.3559 20.5051 24.3534 20.5111 24.351 20.5172C19.3199 24.6228 14.5058 22.9941 13.5311 22.3294C13.4634 22.2967 13.3952 22.2628 13.3275 22.2277C10.394 20.8247 9.18242 18.1443 9.44199 15.8475C6.96582 15.8475 6.12118 13.7534 6.12118 13.7534C6.12118 13.7534 8.34478 12.1645 11.2754 13.5465C13.9896 14.8268 16.5386 13.7534 16.5386 13.7534C16.5334 13.6395 14.094 12.6667 13.1426 11.7272C12.6345 11.2257 12.393 10.9836 12.1789 10.8018C12.0631 10.7037 11.942 10.6119 11.8161 10.5271C11.7327 10.4686 11.6411 10.4101 11.5245 10.3347C10.5019 9.66827 8.46844 9.7051 8.40136 9.70685H8.39494C7.83904 9.00125 7.87812 6.67398 7.90962 6.18818C7.90321 6.15778 7.49547 6.40039 7.44297 6.43722C6.95244 6.78792 6.49391 7.18153 6.07277 7.61342C5.59352 8.10037 5.15568 8.62657 4.76381 9.18655C3.86224 10.4671 3.22286 11.914 2.88262 13.4436C2.87154 13.4705 2.3728 15.6528 2.61896 16.7846Z" fill="url(#paint7_radial_1_1645)"/>
<path d="M21.4497 11.2399C21.9615 11.7431 22.3998 12.3162 22.7516 12.9423C22.8246 12.9971 22.8946 13.0557 22.9616 13.1176C26.1395 16.05 24.4771 20.2012 24.3505 20.4993C26.9323 18.3673 28.5836 15.2146 28.0866 11.9601C26.5018 7.99777 23.8139 6.40065 21.6188 2.92407C21.5074 2.74869 21.3966 2.57331 21.2881 2.38566C21.2269 2.27985 21.1773 2.18397 21.1341 2.09336C21.0432 1.91757 20.9729 1.73179 20.9247 1.53975C20.9251 1.53063 20.9221 1.52169 20.9163 1.51467C20.9104 1.50765 20.9022 1.50305 20.8932 1.50175C20.8846 1.49942 20.8756 1.49942 20.867 1.50175C20.8646 1.50281 20.8625 1.50419 20.8605 1.50584C20.857 1.50584 20.8535 1.50994 20.85 1.5111C20.3076 1.77066 17.0923 6.87301 21.4497 11.2399Z" fill="url(#paint8_radial_1_1645)"/>
<path d="M22.9645 13.1146C22.8975 13.0527 22.8274 12.9941 22.7545 12.9393C22.7259 12.9176 22.6962 12.896 22.667 12.8744C21.9186 12.3482 20.5782 11.8268 19.2873 12.0518C24.3295 14.5785 22.9756 23.2796 15.9887 22.951C15.3666 22.926 14.7518 22.8078 14.1646 22.6003C14.0276 22.5488 13.8899 22.4921 13.7528 22.4313C13.6735 22.3951 13.5947 22.3588 13.5195 22.3185L13.5288 22.3243C14.5035 22.9908 19.3176 24.6195 24.3487 20.5121C24.3487 20.5121 24.3516 20.5045 24.3563 20.494C24.4811 20.2011 26.1436 16.0499 22.9645 13.1146Z" fill="url(#paint9_radial_1_1645)"/>
<path d="M10.2117 17.722C10.2117 17.722 10.8585 15.3053 14.8449 15.3053C15.276 15.3053 16.5079 14.0998 16.5307 13.7503C16.5534 13.4007 13.9816 14.8236 11.2674 13.5433C8.33688 12.1613 6.11328 13.7503 6.11328 13.7503C6.11328 13.7503 6.95792 15.8443 9.43409 15.8443C9.17452 18.1411 10.3861 20.8192 13.3195 22.2245C13.3849 22.2555 13.4467 22.29 13.5138 22.3204C11.8017 21.4353 10.3884 19.7575 10.2117 17.722Z" fill="url(#paint10_radial_1_1645)"/>
<path d="M29.4788 11.2265C28.8699 9.7574 27.6356 8.17139 26.6667 7.67039C27.4553 9.22015 27.9115 10.7746 28.0859 11.9344C28.0859 11.9344 28.0859 11.9426 28.0888 11.9578C26.5039 7.99777 23.816 6.40065 21.621 2.92407C21.5096 2.74869 21.3988 2.57331 21.2903 2.38566C21.229 2.27985 21.1794 2.18397 21.1363 2.09336C21.0453 1.91757 20.975 1.73179 20.9269 1.53975C20.9273 1.53063 20.9242 1.52169 20.9184 1.51467C20.9126 1.50765 20.9044 1.50305 20.8954 1.50175C20.8868 1.49942 20.8777 1.49942 20.8691 1.50175C20.8668 1.50281 20.8646 1.50419 20.8627 1.50584C20.8592 1.50584 20.8557 1.50994 20.8522 1.5111L20.858 1.5035C17.3366 3.57063 16.1419 7.39446 16.0323 9.30784C16.1956 9.29673 16.3584 9.28271 16.5246 9.28271C19.1524 9.28271 21.4414 10.7313 22.6669 12.8774C21.9185 12.3512 20.578 11.8298 19.2872 12.0549C24.3293 14.5815 22.9755 23.2826 15.9885 22.954C15.3665 22.929 14.7516 22.8108 14.1645 22.6033C14.0274 22.5518 13.8898 22.4951 13.7527 22.4343C13.6734 22.3981 13.5946 22.3618 13.5194 22.3215L13.5287 22.3273C13.461 22.2946 13.3928 22.2607 13.3251 22.2256C13.3904 22.2566 13.4523 22.2911 13.5194 22.3215C11.8038 21.4347 10.3904 19.7569 10.2137 17.7213C10.2137 17.7213 10.8606 15.3046 14.847 15.3046C15.2781 15.3046 16.51 14.0992 16.5328 13.7496C16.5275 13.6356 14.0881 12.6628 13.1367 11.7234C12.6286 11.2218 12.3871 10.9798 12.1731 10.798C12.0572 10.6998 11.9361 10.6081 11.8102 10.5232C11.4909 9.4027 11.4774 8.21683 11.7712 7.08931C10.3309 7.74697 9.21098 8.78463 8.39667 9.70303H8.39026C7.83436 8.99742 7.87344 6.67015 7.90494 6.18435C7.89852 6.15395 7.49079 6.39656 7.43829 6.43339C6.94776 6.7841 6.48923 7.17771 6.06808 7.6096C5.58883 8.09655 5.15099 8.62276 4.75912 9.18274C3.85755 10.4632 3.21817 11.9101 2.87793 13.4398C2.87152 13.4702 2.86568 13.5017 2.85927 13.5327C2.83302 13.6561 2.71402 14.2839 2.69769 14.4184C2.69769 14.4084 2.69769 14.4289 2.69769 14.4184C2.58847 15.0671 2.51854 15.7219 2.48828 16.3791V16.451C2.48828 24.2097 8.76474 30.5 16.5065 30.5C23.4404 30.5 29.1971 25.4549 30.3247 18.828C30.348 18.6485 30.3672 18.4673 30.3882 18.286C30.6671 15.8763 30.3573 13.3439 29.4788 11.2265Z" fill="url(#paint11_linear_1_1645)"/>
</g>
</g>
<defs>
<linearGradient id="paint0_linear_1_1645" x1="27.6233" y1="5.99261" x2="4.3022" y2="28.4437" gradientUnits="userSpaceOnUse">
<stop offset="0.05" stop-color="#FFF44F"/>
<stop offset="0.11" stop-color="#FFE847"/>
<stop offset="0.22" stop-color="#FFC830"/>
<stop offset="0.37" stop-color="#FF980E"/>
<stop offset="0.4" stop-color="#FF8B16"/>
<stop offset="0.46" stop-color="#FF672A"/>
<stop offset="0.53" stop-color="#FF3647"/>
<stop offset="0.7" stop-color="#E31587"/>
</linearGradient>
<radialGradient id="paint1_radial_1_1645" cx="0" cy="0" r="1" gradientUnits="userSpaceOnUse" gradientTransform="translate(26.5459 4.7183) scale(29.2246 29.2888)">
<stop offset="0.13" stop-color="#FFBD4F"/>
<stop offset="0.19" stop-color="#FFAC31"/>
<stop offset="0.25" stop-color="#FF9D17"/>
<stop offset="0.28" stop-color="#FF980E"/>
<stop offset="0.4" stop-color="#FF563B"/>
<stop offset="0.47" stop-color="#FF3750"/>
<stop offset="0.71" stop-color="#F5156C"/>
<stop offset="0.78" stop-color="#EB0878"/>
<stop offset="0.86" stop-color="#E50080"/>
</radialGradient>
<radialGradient id="paint2_radial_1_1645" cx="0" cy="0" r="1" gradientUnits="userSpaceOnUse" gradientTransform="translate(15.8672 16.692) scale(29.2246 29.2888)">
<stop offset="0.3" stop-color="#960E18"/>
<stop offset="0.35" stop-color="#B11927" stop-opacity="0.74"/>
<stop offset="0.43" stop-color="#DB293D" stop-opacity="0.34"/>
<stop offset="0.5" stop-color="#F5334B" stop-opacity="0.09"/>
<stop offset="0.53" stop-color="#FF3750" stop-opacity="0"/>
</radialGradient>
<radialGradient id="paint3_radial_1_1645" cx="0" cy="0" r="1" gradientUnits="userSpaceOnUse" gradientTransform="translate(19.3922 -1.92766) scale(21.172 21.2184)">
<stop offset="0.13" stop-color="#FFF44F"/>
<stop offset="0.25" stop-color="#FFDC3E"/>
<stop offset="0.51" stop-color="#FF9D12"/>
<stop offset="0.53" stop-color="#FF980E"/>
</radialGradient>
<radialGradient id="paint4_radial_1_1645" cx="0" cy="0" r="1" gradientUnits="userSpaceOnUse" gradientTransform="translate(12.638 24.3433) scale(13.915 13.9455)">
<stop offset="0.35" stop-color="#3A8EE6"/>
<stop offset="0.47" stop-color="#5C79F0"/>
<stop offset="0.67" stop-color="#9059FF"/>
<stop offset="1" stop-color="#C139E6"/>
</radialGradient>
<radialGradient id="paint5_radial_1_1645" cx="0" cy="0" r="1" gradientUnits="userSpaceOnUse" gradientTransform="translate(16.2898 13.2118) rotate(-13.9265) scale(7.37316 8.67852)">
<stop offset="0.21" stop-color="#9059FF" stop-opacity="0"/>
<stop offset="0.28" stop-color="#8C4FF3" stop-opacity="0.06"/>
<stop offset="0.75" stop-color="#7716A8" stop-opacity="0.45"/>
<stop offset="0.97" stop-color="#6E008B" stop-opacity="0.6"/>
</radialGradient>
<radialGradient id="paint6_radial_1_1645" cx="0" cy="0" r="1" gradientUnits="userSpaceOnUse" gradientTransform="translate(15.5003 3.52089) scale(10.0108 10.0328)">
<stop stop-color="#FFE226"/>
<stop offset="0.12" stop-color="#FFDB27"/>
<stop offset="0.3" stop-color="#FFC82A"/>
<stop offset="0.5" stop-color="#FFA930"/>
<stop offset="0.73" stop-color="#FF7E37"/>
<stop offset="0.79" stop-color="#FF7139"/>
</radialGradient>
<radialGradient id="paint7_radial_1_1645" cx="0" cy="0" r="1" gradientUnits="userSpaceOnUse" gradientTransform="translate(23.3698 -2.84264) scale(42.7109 42.8046)">
<stop offset="0.11" stop-color="#FFF44F"/>
<stop offset="0.46" stop-color="#FF980E"/>
<stop offset="0.62" stop-color="#FF5634"/>
<stop offset="0.72" stop-color="#FF3647"/>
<stop offset="0.9" stop-color="#E31587"/>
</radialGradient>
<radialGradient id="paint8_radial_1_1645" cx="0" cy="0" r="1" gradientUnits="userSpaceOnUse" gradientTransform="translate(19.238 1.83374) rotate(84.2447) scale(31.1996 20.4543)">
<stop stop-color="#FFF44F"/>
<stop offset="0.06" stop-color="#FFE847"/>
<stop offset="0.17" stop-color="#FFC830"/>
<stop offset="0.3" stop-color="#FF980E"/>
<stop offset="0.36" stop-color="#FF8B16"/>
<stop offset="0.45" stop-color="#FF672A"/>
<stop offset="0.57" stop-color="#FF3647"/>
<stop offset="0.74" stop-color="#E31587"/>
</radialGradient>
<radialGradient id="paint9_radial_1_1645" cx="0" cy="0" r="1" gradientUnits="userSpaceOnUse" gradientTransform="translate(15.2659 7.23594) scale(26.6644 26.723)">
<stop offset="0.14" stop-color="#FFF44F"/>
<stop offset="0.48" stop-color="#FF980E"/>
<stop offset="0.59" stop-color="#FF5634"/>
<stop offset="0.66" stop-color="#FF3647"/>
<stop offset="0.9" stop-color="#E31587"/>
</radialGradient>
<radialGradient id="paint10_radial_1_1645" cx="0" cy="0" r="1" gradientUnits="userSpaceOnUse" gradientTransform="translate(22.3008 8.80108) scale(29.1844 29.2484)">
<stop offset="0.09" stop-color="#FFF44F"/>
<stop offset="0.23" stop-color="#FFE141"/>
<stop offset="0.51" stop-color="#FFAF1E"/>
<stop offset="0.63" stop-color="#FF980E"/>
</radialGradient>
<linearGradient id="paint11_linear_1_1645" x1="27.3433" y1="5.87218" x2="7.49871" y2="25.6739" gradientUnits="userSpaceOnUse">
<stop offset="0.17" stop-color="#FFF44F" stop-opacity="0.8"/>
<stop offset="0.27" stop-color="#FFF44F" stop-opacity="0.63"/>
<stop offset="0.49" stop-color="#FFF44F" stop-opacity="0.22"/>
<stop offset="0.6" stop-color="#FFF44F" stop-opacity="0"/>
</linearGradient>
<clipPath id="clip0_1_1645">
<rect width="32" height="32" fill="white" transform="translate(0.488281 0.5)"/>
</clipPath>
</defs>
</svg>
