<svg width="29" height="33" viewBox="0 0 29 33" fill="none" xmlns="http://www.w3.org/2000/svg">
<g clip-path="url(#clip0_1_1448)">
<g clip-path="url(#clip1_1_1448)">
<g style="mix-blend-mode:luminosity">
<path d="M26.7614 16.5009C26.7614 23.2678 21.2756 28.7597 14.5026 28.7597C7.72969 28.7597 2.2439 23.2678 2.2439 16.5009C2.2439 9.72798 7.72969 4.24219 14.5026 4.24219C21.2756 4.24219 26.7614 9.72798 26.7614 16.5009Z" fill="white"/>
<path d="M10.3915 21.6753C10.2818 21.5118 10.1858 21.2912 10.1079 21.0273C8.70102 19.4407 9.78783 17.106 10.8628 15.5206C10.9659 15.3511 11.0782 15.1873 11.2002 15.0307C12.0204 14.0116 12.2326 13.3024 12.2957 12.343C12.3032 12.1644 12.2884 11.928 12.2715 11.6563C12.1847 10.2692 12.0405 7.96458 14.5153 7.76026C17.6089 7.50483 17.3569 10.3457 17.3341 12.0112C17.3331 12.0802 17.3321 12.1472 17.3315 12.2119C17.3231 13.2159 17.8471 13.9034 18.394 14.6209C18.5937 14.8829 18.7965 15.149 18.9776 15.4359C18.9829 15.4444 18.9883 15.453 18.9936 15.4615C19.9494 16.8399 20.8929 18.897 19.5796 20.8481C19.395 21.5141 19.1155 22.1254 18.7424 22.6229C17.4029 24.3856 16.2123 24.2066 15.2825 24.0668C15.002 24.0247 14.7453 23.9861 14.5153 24.0055C14.1334 24.0288 13.8273 24.0905 13.5628 24.1439C12.5407 24.3502 12.1413 24.4308 10.3915 21.6753Z" fill="black"/>
<path d="M16.267 9.31605C16.2383 10.1325 15.3723 10.8416 14.3342 10.9072C13.296 10.9728 12.4815 10.353 12.5103 9.53655C12.5389 8.72012 13.405 8.01095 14.4431 7.9454C15.4813 7.88581 16.2957 8.49962 16.267 9.31605Z" fill="url(#paint0_linear_1_1448)"/>
<path fill-rule="evenodd" clip-rule="evenodd" d="M14.3845 11.3005C14.3928 11.7446 14.5961 12.1231 14.8816 12.294C13.9501 12.2106 12.7957 12.5512 12.7957 13.1956C12.7814 14.286 12.1746 15.6425 11.7377 16.6189C11.6517 16.8112 11.5723 16.9888 11.5052 17.1467C11.2348 17.8163 11.0726 18.5324 11.0534 19.2348C10.3372 18.2476 10.8576 16.9812 11.1382 16.4316C11.5115 15.7082 11.5044 15.618 11.3594 15.7875C10.8034 16.7328 9.75652 18.6316 11.0675 19.7723C11.1091 20.2816 11.2332 20.7752 11.4537 21.2289C13.2087 24.7687 16.4952 23.3146 17.5792 21.4791C17.7234 21.2182 17.84 20.9657 17.9326 20.7217C17.9869 20.756 18.045 20.7824 18.1068 20.7997C18.6517 20.9607 19.4662 20.3469 19.6612 19.9654C19.8963 19.4589 19.6555 19.1133 18.8525 18.7021C18.8115 18.6818 18.7711 18.6628 18.7312 18.645C19.0391 17.3482 18.1905 15.9997 17.5843 15.4277C17.4713 15.3998 17.4554 15.4639 17.6308 15.639C18.0125 16.0047 18.8428 17.3091 18.3936 18.5229C18.3196 18.503 18.2484 18.4891 18.1806 18.4813C18.0426 17.6532 17.6746 17.0088 17.4175 16.5586C17.3592 16.4566 17.3067 16.3645 17.2637 16.2826C17.1772 16.1172 17.0737 15.946 16.9639 15.7644C16.5409 15.0645 16.0249 14.2106 16.0249 12.9454C15.9602 12.6669 15.6975 12.4814 15.3478 12.3789C15.7537 12.297 16.0583 11.8228 16.0478 11.2529C16.0363 10.6391 15.652 10.1504 15.1932 10.1623C14.7344 10.1742 14.3673 10.6867 14.3845 11.3005ZM14.763 11.4376C14.7573 11.7773 14.9179 12.0515 15.1301 12.0515C15.3366 12.0515 15.5144 11.7773 15.5201 11.4436C15.5258 11.1039 15.3653 10.8298 15.1531 10.8298C14.9408 10.8298 14.7688 11.1039 14.763 11.4376Z" fill="url(#paint1_linear_1_1448)"/>
<path fill-rule="evenodd" clip-rule="evenodd" d="M13.236 12.2535C13.5686 12.2356 13.8095 11.7886 13.7809 11.2582C13.7522 10.7279 13.4597 10.3167 13.127 10.3345C12.7943 10.3524 12.5534 10.7994 12.5822 11.3298C12.6108 11.8601 12.9033 12.2713 13.236 12.2535ZM13.4367 11.443C13.4654 11.7231 13.3622 11.9615 13.213 11.9853C13.0639 12.0031 12.9205 11.7946 12.8919 11.5145C12.8631 11.2344 12.9664 10.996 13.1155 10.9722C13.2646 10.9543 13.408 11.1629 13.4367 11.443Z" fill="url(#paint2_linear_1_1448)"/>
<path d="M14.8477 11.2463C14.8304 11.437 14.9165 11.5919 15.0369 11.6038C15.1574 11.6158 15.2721 11.4668 15.2892 11.282C15.3065 11.0914 15.2204 10.9364 15.1 10.9245C14.9795 10.9126 14.8648 11.0616 14.8477 11.2463Z" fill="url(#paint3_linear_1_1448)"/>
<path d="M13.3138 11.2943C13.331 11.4493 13.2679 11.5863 13.1762 11.5982C13.0844 11.6102 12.9983 11.491 12.9811 11.3301C12.9639 11.1752 13.027 11.0381 13.1188 11.0262C13.2106 11.0143 13.2966 11.1394 13.3138 11.2943Z" fill="url(#paint4_linear_1_1448)"/>
<path d="M16.8393 17.5104C16.8393 18.5593 15.87 19.918 14.2068 19.9061C12.4918 19.918 11.7634 18.5593 11.7634 17.5104C11.7634 16.4615 12.899 15.6094 14.2985 15.6094C15.7037 15.6153 16.8393 16.4615 16.8393 17.5104Z" fill="url(#paint5_linear_1_1448)"/>
<path d="M15.9343 14.215C15.9172 15.2996 15.2346 15.5559 14.3742 15.5559C13.5139 15.5559 12.8887 15.3949 12.8142 14.215C12.8142 13.4761 13.5139 13.0469 14.3742 13.0469C15.2346 13.041 15.9343 13.4701 15.9343 14.215Z" fill="url(#paint6_linear_1_1448)"/>
<path d="M10.733 15.8835C11.2951 14.9956 12.4823 13.6308 10.9567 16.0742C9.71778 18.0885 10.4979 19.3817 10.8993 19.7392C12.0579 20.8119 12.012 21.533 11.1 20.9668C9.14426 19.7571 9.5515 17.719 10.733 15.8835Z" fill="url(#paint7_linear_1_1448)"/>
<path d="M18.8704 16.2478C18.383 15.2049 16.8343 12.5589 18.945 15.6339C20.8664 18.4169 19.5186 20.3537 19.2777 20.5444C19.0368 20.7352 18.2281 21.1224 18.4633 20.4491C18.7042 19.7756 19.8971 18.5004 18.8704 16.2478Z" fill="url(#paint8_linear_1_1448)"/>
<path d="M10.3088 24.4714C9.02404 23.7623 7.15999 24.6085 7.83678 22.6896C7.97443 22.2546 7.63603 21.599 7.85398 21.1759C8.11208 20.6575 8.66843 20.7707 9.00109 20.4251C9.32801 20.0675 9.53448 19.4477 10.1482 19.5431C10.7562 19.6384 11.1634 20.4132 11.5878 21.3666C11.9033 22.046 13.016 23.0054 12.9414 23.7683C12.8496 24.9363 11.5706 25.1568 10.3088 24.4714Z" fill="url(#paint9_linear_1_1448)"/>
<path fill-rule="evenodd" clip-rule="evenodd" d="M9.14104 20.5647C8.82861 20.9063 8.2548 20.8245 8.02451 21.2716C7.87661 21.5587 8.0382 22 8.06001 22.3144C8.08694 22.7029 7.76489 23.2534 7.9289 23.5851C8.11309 23.9577 8.94518 23.9094 9.31096 23.9628C10.2139 24.0948 11.7063 25.2634 12.5228 24.3307C13.3211 23.4189 11.7868 22.2652 11.4104 21.4547C11.1657 20.9049 10.7994 19.8506 10.1177 19.7436C9.63704 19.669 9.41814 20.2616 9.14104 20.5647ZM10.1757 19.3425C11.0246 19.4756 11.4494 20.5761 11.7627 21.2799C12.2383 22.3004 13.8677 23.3973 12.8116 24.6037C11.8525 25.6993 10.3382 24.5225 9.25658 24.3644C8.71637 24.2856 7.86432 24.3422 7.58165 23.7704C7.33862 23.2788 7.70463 22.8335 7.67065 22.3436C7.6417 21.9261 7.47648 21.4778 7.67967 21.0815C7.95783 20.5244 8.49482 20.6593 8.8598 20.2833C9.24738 19.8575 9.47969 19.2343 10.1757 19.3425Z" fill="#E68C3F"/>
<path d="M19.2156 24.143C20.1562 22.9571 22.2497 23.2015 20.8388 21.5745C20.5405 21.2229 20.6323 20.472 20.2652 20.1502C19.835 19.7569 19.359 20.0787 18.9231 19.8761C18.4872 19.6556 18.0284 19.2325 17.4949 19.5305C16.9615 19.8344 16.9041 20.621 16.8526 21.6579C16.8067 22.4029 16.1529 23.6484 16.5027 24.3337C17.0075 25.3945 18.3209 25.2515 19.2156 24.143Z" fill="url(#paint10_linear_1_1448)"/>
<path fill-rule="evenodd" clip-rule="evenodd" d="M19.5903 19.7397C19.8315 19.7334 20.1203 19.7503 20.3916 19.9974C20.729 20.2948 20.7323 20.7805 20.8595 21.187C21.0102 21.6684 21.5381 21.9435 21.5065 22.508C21.4549 23.4309 19.8566 23.6532 19.3647 24.2735C18.8919 24.859 18.2944 25.2078 17.7273 25.2548C16.8674 25.3261 16.1571 24.6029 16.2073 23.72C16.2482 23.0053 16.6122 22.356 16.6566 21.647C16.6822 21.1336 16.7098 20.6575 16.8026 20.271C16.8964 19.8805 17.0654 19.5441 17.4 19.3535C18.1329 18.944 18.841 19.7593 19.5903 19.7397ZM17.5871 19.7095C17.3887 19.8229 17.2625 20.0317 17.1814 20.3693C17.0993 20.7109 17.0724 21.1487 17.0463 21.6717C17.0025 22.3824 16.6377 23.0313 16.5971 23.744C16.5608 24.3797 17.0491 24.904 17.6963 24.8505C18.1356 24.814 18.6425 24.5365 19.0644 24.0141C19.4415 23.5392 21.0824 23.0982 21.1167 22.4844C21.1391 22.0837 20.612 21.7078 20.4882 21.3124C20.3913 21.0029 20.3863 20.5235 20.1383 20.3061C19.9798 20.1612 19.8131 20.1396 19.6001 20.1452C18.9831 20.1614 18.1599 19.3903 17.5871 19.7095Z" fill="#E68C3F"/>
<path d="M18.8069 22.5582C20.2637 20.3234 19.1797 20.3413 18.8126 20.1685C18.4455 19.9897 18.0613 19.6381 17.6311 19.8824C17.2009 20.1327 17.178 20.7763 17.1665 21.6225C17.1494 22.2304 16.6618 23.2494 16.9544 23.8156C17.3099 24.4771 18.1702 23.5176 18.8069 22.5582Z" fill="url(#paint11_linear_1_1448)"/>
<path d="M10.0072 22.8802C7.82769 21.4143 8.84861 20.9137 9.17554 20.6813C9.57134 20.3833 9.57703 19.8112 10.0646 19.8649C10.552 19.9184 10.8388 20.5442 11.1658 21.3189C11.4066 21.8731 12.2441 22.612 12.181 23.2498C12.1007 24.0006 10.9478 23.506 10.0072 22.8802Z" fill="url(#paint12_linear_1_1448)"/>
<path d="M19.5355 19.948C19.3634 20.2579 18.6637 20.7466 18.1991 20.6155C17.7231 20.4903 17.5052 19.793 17.6026 19.2686C17.6887 18.6727 18.1991 18.6429 18.8416 18.9408C19.524 19.2626 19.7363 19.5368 19.5355 19.948Z" fill="black"/>
<path d="M19.0648 19.7747C18.9558 19.9892 18.497 20.3289 18.1758 20.2395C17.8546 20.1501 17.694 19.6674 17.7456 19.3039C17.7915 18.8927 18.1356 18.8688 18.5716 19.0715C19.0419 19.2979 19.191 19.4886 19.0648 19.7747Z" fill="url(#paint13_linear_1_1448)"/>
<path d="M13.1334 11.9971C13.3628 11.7766 13.9192 11.1032 14.9745 11.8063C15.1695 11.9375 15.3301 11.9494 15.7029 12.1162C16.4543 12.438 16.0986 13.2128 15.2957 13.475C14.9516 13.5882 14.6419 14.0232 14.0224 13.9816C13.489 13.9517 13.3514 13.5882 13.0244 13.3916C12.4452 13.0518 12.3591 12.593 12.6746 12.3487C12.99 12.1043 13.1105 12.0149 13.1334 11.9971Z" fill="url(#paint14_linear_1_1448)"/>
<path fill-rule="evenodd" clip-rule="evenodd" d="M12.7463 12.4468C12.6264 12.5397 12.5882 12.6632 12.6279 12.7997C12.7093 13.0803 13.2965 13.4662 13.5214 13.655C13.6492 13.7623 13.7954 13.8474 14.0318 13.8607C14.5379 13.8947 14.819 13.5053 15.2624 13.3594C15.554 13.2642 16.171 12.9003 15.9666 12.4832C15.7922 12.1273 15.2047 12.1053 14.9128 11.9092C14.4106 11.5746 14.0449 11.5769 13.7844 11.6708C13.4989 11.7737 13.0048 12.2465 12.7463 12.4468ZM13.7076 11.4409C14.0465 11.3188 14.487 11.3363 15.0399 11.7047C15.4033 11.949 15.9561 11.9254 16.1753 12.3728C16.4545 12.9426 15.7779 13.4461 15.3327 13.5916C14.8559 13.7486 14.5895 14.1418 14.0172 14.1036C13.7205 14.0868 13.5301 13.9752 13.3742 13.8443C13.0506 13.5727 12.504 13.3145 12.379 12.8838C12.3097 12.6449 12.4108 12.4031 12.6063 12.2516C12.9223 12.0069 13.3494 11.57 13.7076 11.4409Z" fill="#E68C3F"/>
<path fill-rule="evenodd" clip-rule="evenodd" d="M15.7928 12.6196C15.7952 12.6644 15.7622 12.7026 15.7192 12.7051C15.1121 12.7395 14.6855 13.4322 14 13.4322C13.6163 13.4322 13.3127 13.2472 13.0955 13.0692C13.0518 13.0333 12.6658 12.7356 12.6658 12.6598C12.6658 12.6151 12.7007 12.5787 12.7439 12.5787C12.8245 12.5787 13.0679 12.8428 13.1584 12.9171C13.3629 13.0847 13.6666 13.27 14 13.27C14.6787 13.27 15.095 12.5779 15.7106 12.5431C15.7537 12.5406 15.7904 12.575 15.7928 12.6196Z" fill="#E68C3F"/>
<path d="M13.4914 11.9385C13.6061 11.8313 13.9673 11.5393 14.4434 11.8372C14.5467 11.8968 14.6499 11.9624 14.799 12.0518C15.103 12.2365 14.9539 12.5046 14.5868 12.6715C14.4205 12.7431 14.1452 12.898 13.9387 12.8861C13.7093 12.8622 13.5544 12.7072 13.4053 12.6059C13.1242 12.4153 13.1415 12.2544 13.2733 12.1292C13.3709 12.0339 13.4799 11.9445 13.4914 11.9385Z" fill="url(#paint15_linear_1_1448)"/>
</g>
</g>
</g>
<defs>
<linearGradient id="paint0_linear_1_1448" x1="14.5542" y1="8.01282" x2="14.3604" y2="10.6395" gradientUnits="userSpaceOnUse">
<stop stop-color="white" stop-opacity="0.8"/>
<stop offset="1" stop-color="white" stop-opacity="0"/>
</linearGradient>
<linearGradient id="paint1_linear_1_1448" x1="11.7847" y1="22.3433" x2="10.3435" y2="17.6144" gradientUnits="userSpaceOnUse">
<stop stop-color="#FFEED7"/>
<stop offset="1" stop-color="#BDBFC2"/>
</linearGradient>
<linearGradient id="paint2_linear_1_1448" x1="11.7833" y1="22.3427" x2="10.342" y2="17.6138" gradientUnits="userSpaceOnUse">
<stop stop-color="#FFEED7"/>
<stop offset="1" stop-color="#BDBFC2"/>
</linearGradient>
<linearGradient id="paint3_linear_1_1448" x1="15.0858" y1="10.9449" x2="15.0041" y2="11.5568" gradientUnits="userSpaceOnUse">
<stop stop-color="white" stop-opacity="0.65"/>
<stop offset="1" stop-color="white" stop-opacity="0"/>
</linearGradient>
<linearGradient id="paint4_linear_1_1448" x1="13.1326" y1="11.0568" x2="13.2205" y2="11.5518" gradientUnits="userSpaceOnUse">
<stop stop-color="white" stop-opacity="0.65"/>
<stop offset="1" stop-color="white" stop-opacity="0"/>
</linearGradient>
<linearGradient id="paint5_linear_1_1448" x1="14.2933" y1="16.1777" x2="14.3079" y2="19.6773" gradientUnits="userSpaceOnUse">
<stop stop-color="white" stop-opacity="0.8"/>
<stop offset="1" stop-color="white" stop-opacity="0"/>
</linearGradient>
<linearGradient id="paint6_linear_1_1448" x1="14.372" y1="13.9834" x2="14.3881" y2="15.3749" gradientUnits="userSpaceOnUse">
<stop stop-color="white" stop-opacity="0.65"/>
<stop offset="1" stop-color="white" stop-opacity="0"/>
</linearGradient>
<linearGradient id="paint7_linear_1_1448" x1="10.7561" y1="14.8422" x2="10.7561" y2="19.9486" gradientUnits="userSpaceOnUse">
<stop stop-color="white" stop-opacity="0.65"/>
<stop offset="1" stop-color="white" stop-opacity="0"/>
</linearGradient>
<linearGradient id="paint8_linear_1_1448" x1="18.9097" y1="14.3441" x2="18.9078" y2="18.958" gradientUnits="userSpaceOnUse">
<stop stop-color="white" stop-opacity="0.65"/>
<stop offset="1" stop-color="white" stop-opacity="0"/>
</linearGradient>
<linearGradient id="paint9_linear_1_1448" x1="10.5012" y1="22.1382" x2="9.71906" y2="24.7511" gradientUnits="userSpaceOnUse">
<stop stop-color="#FFA63F"/>
<stop offset="1" stop-color="#FFFF00"/>
</linearGradient>
<linearGradient id="paint10_linear_1_1448" x1="17.9027" y1="21.3429" x2="19.9898" y2="24.1888" gradientUnits="userSpaceOnUse">
<stop stop-color="#FFA63F"/>
<stop offset="1" stop-color="#FFFF00"/>
</linearGradient>
<linearGradient id="paint11_linear_1_1448" x1="18.4603" y1="19.0696" x2="17.7305" y2="22.5084" gradientUnits="userSpaceOnUse">
<stop stop-color="white" stop-opacity="0.65"/>
<stop offset="1" stop-color="white" stop-opacity="0"/>
</linearGradient>
<linearGradient id="paint12_linear_1_1448" x1="10.3384" y1="19.9203" x2="10.4831" y2="23.7903" gradientUnits="userSpaceOnUse">
<stop stop-color="white" stop-opacity="0.65"/>
<stop offset="1" stop-color="white" stop-opacity="0"/>
</linearGradient>
<linearGradient id="paint13_linear_1_1448" x1="18.3334" y1="19.0065" x2="18.5026" y2="20.1628" gradientUnits="userSpaceOnUse">
<stop stop-color="white" stop-opacity="0.65"/>
<stop offset="1" stop-color="white" stop-opacity="0"/>
</linearGradient>
<linearGradient id="paint14_linear_1_1448" x1="14.2954" y1="11.9326" x2="14.3095" y2="13.9691" gradientUnits="userSpaceOnUse">
<stop stop-color="#FFA63F"/>
<stop offset="1" stop-color="#FFFF00"/>
</linearGradient>
<linearGradient id="paint15_linear_1_1448" x1="14.0749" y1="11.7411" x2="14.071" y2="12.8179" gradientUnits="userSpaceOnUse">
<stop stop-color="white" stop-opacity="0.65"/>
<stop offset="1" stop-color="white" stop-opacity="0"/>
</linearGradient>
<clipPath id="clip0_1_1448">
<rect width="28.02" height="32" fill="white" transform="translate(0.493896 0.5)"/>
</clipPath>
<clipPath id="clip1_1_1448">
<rect width="28.02" height="32" fill="white" transform="translate(0.493896 0.5)"/>
</clipPath>
</defs>
</svg>
