<svg width="33" height="33" viewBox="0 0 33 33" fill="none" xmlns="http://www.w3.org/2000/svg">
<g clip-path="url(#clip0_1_1499)">
<g clip-path="url(#clip1_1_1499)">
<g style="mix-blend-mode:luminosity">
<path d="M16.1033 30.5C23.8353 30.5 30.1033 24.232 30.1033 16.5C30.1033 8.76801 23.8353 2.5 16.1033 2.5C8.37128 2.5 2.10327 8.76801 2.10327 16.5C2.10327 24.232 8.37128 30.5 16.1033 30.5Z" fill="url(#paint0_linear_1_1499)"/>
<path d="M16.1041 29.4508C23.2562 29.4508 29.0541 23.6529 29.0541 16.5008C29.0541 9.34869 23.2562 3.55078 16.1041 3.55078C8.95197 3.55078 3.15405 9.34869 3.15405 16.5008C3.15405 23.6529 8.95197 29.4508 16.1041 29.4508Z" fill="url(#paint1_radial_1_1499)"/>
<path d="M16.1228 6.69958C16.0353 6.69958 15.9587 6.63398 15.9587 6.54648V4.26052C15.9587 4.17302 16.0353 4.10742 16.1228 4.10742C16.2103 4.10742 16.2868 4.17302 16.2868 4.26052V6.54648C16.2759 6.63398 16.2103 6.69958 16.1228 6.69958Z" fill="#F3F3F3"/>
<path d="M16.1259 6.7117C16.0274 6.7117 15.9509 6.63515 15.9509 6.54765V4.26171C15.9509 4.17421 16.0274 4.09766 16.1259 4.09766C16.2243 4.09766 16.3009 4.17421 16.3009 4.26171V6.54765C16.3009 6.63515 16.2134 6.7117 16.1259 6.7117ZM16.1259 4.11945C16.0493 4.11945 15.9728 4.18516 15.9728 4.26171V6.54765C15.9728 6.6242 16.0384 6.68991 16.1259 6.68991C16.2024 6.68991 16.279 6.6242 16.279 6.54765V4.26171C16.2681 4.18516 16.2024 4.11945 16.1259 4.11945Z" fill="white"/>
<path d="M17.2212 5.47506C17.1337 5.46411 17.0681 5.39851 17.0681 5.31101L17.1446 4.29373C17.1555 4.20634 17.2321 4.14063 17.3196 4.15158C17.4071 4.16254 17.4727 4.22825 17.4727 4.31575L17.3962 5.33291C17.3852 5.42041 17.3087 5.4859 17.2212 5.47506Z" fill="#F3F3F3"/>
<path d="M17.2204 5.48507C17.122 5.47411 17.0564 5.39757 17.0564 5.31007L17.1329 4.2928C17.1439 4.20541 17.2204 4.12886 17.3189 4.1397C17.4172 4.15066 17.4829 4.22732 17.4829 4.3147L17.4064 5.33197C17.3954 5.43042 17.3189 5.49602 17.2204 5.48507ZM17.3189 4.16161C17.2423 4.16161 17.1657 4.21637 17.1657 4.29291L17.0891 5.31018C17.0891 5.38661 17.1439 5.45232 17.2314 5.46316C17.3079 5.46316 17.3845 5.40852 17.3845 5.33197L17.461 4.3147C17.461 4.23816 17.3955 4.17256 17.3189 4.16161Z" fill="white"/>
<path d="M18.0367 6.89705C17.9491 6.87514 17.8945 6.79859 17.9054 6.71109L18.3538 4.46882C18.3758 4.38143 18.4523 4.32668 18.5398 4.34858C18.6273 4.37048 18.6819 4.44703 18.671 4.53453L18.2226 6.7768C18.2116 6.85324 18.1242 6.908 18.0367 6.89705Z" fill="#F3F3F3"/>
<path d="M18.0398 6.90857C17.9413 6.88666 17.8866 6.79916 17.8976 6.71166L18.346 4.46942C18.3679 4.38203 18.4554 4.31632 18.5537 4.33823C18.6522 4.36013 18.7069 4.44763 18.696 4.53513L18.2475 6.77737C18.2256 6.86476 18.1382 6.91952 18.0398 6.90857ZM18.5537 4.36013C18.4772 4.34918 18.4006 4.39287 18.3787 4.46953L17.9304 6.71178C17.9195 6.78821 17.9632 6.86476 18.0507 6.88678C18.1272 6.89762 18.2037 6.85381 18.2256 6.77726L18.6741 4.53513C18.685 4.44763 18.6304 4.38203 18.5537 4.36013Z" fill="white"/>
<path d="M19.3531 5.91336C19.3322 5.90834 19.3126 5.89926 19.2953 5.88665C19.2779 5.87403 19.2633 5.85812 19.2521 5.83984C19.2409 5.82155 19.2335 5.80124 19.2302 5.78007C19.2269 5.7589 19.2278 5.73728 19.2328 5.71646L19.5063 4.73217C19.5281 4.64467 19.6156 4.60086 19.7031 4.62277C19.7906 4.64467 19.8453 4.73217 19.8234 4.81967L19.55 5.80407C19.5281 5.89146 19.4406 5.93527 19.3531 5.91336Z" fill="#F3F3F3"/>
<path d="M19.3533 5.92279C19.2658 5.90088 19.2002 5.80243 19.233 5.71505L19.5065 4.73054C19.5282 4.64316 19.6267 4.5884 19.7142 4.6103C19.8017 4.6322 19.8672 4.73066 19.8345 4.81804L19.5611 5.80255C19.5392 5.88993 19.4516 5.94469 19.3533 5.92279ZM19.7142 4.64316C19.6376 4.62125 19.5501 4.66506 19.5282 4.74161L19.2549 5.72589C19.233 5.80243 19.2767 5.87909 19.3642 5.90088C19.4407 5.92279 19.5282 5.87909 19.5501 5.80255L19.8236 4.81804C19.8345 4.74161 19.7908 4.66518 19.7142 4.64316Z" fill="white"/>
<path d="M19.8868 7.45572C19.7993 7.42286 19.7666 7.32441 19.7993 7.24786L20.6743 5.13692C20.707 5.06038 20.8056 5.01657 20.882 5.06038C20.9696 5.09312 21.0025 5.19168 20.9696 5.26812L20.0947 7.37906C20.0619 7.45571 19.9633 7.49941 19.8868 7.45572Z" fill="#F3F3F3"/>
<path d="M19.8884 7.46493C19.8464 7.44892 19.8124 7.41689 19.794 7.37588C19.7755 7.33486 19.7741 7.2882 19.79 7.24613L20.665 5.13516C20.6978 5.04766 20.7963 5.0148 20.8947 5.04766C20.9368 5.06368 20.9707 5.0957 20.9892 5.13672C21.0076 5.17773 21.0091 5.22439 20.9932 5.26647L20.1182 7.37743C20.0744 7.46493 19.9759 7.50863 19.8884 7.46493ZM20.8838 5.06956C20.8072 5.03682 20.7197 5.06956 20.6869 5.14611L19.8119 7.25708C19.7791 7.33363 19.8228 7.41018 19.8994 7.44303C19.9759 7.47577 20.0634 7.44303 20.0963 7.36648L20.9713 5.25552C20.9932 5.18981 20.9603 5.10231 20.8838 5.06956Z" fill="white"/>
<path d="M21.3645 6.7556C21.2879 6.71179 21.255 6.62428 21.2879 6.54774L21.7472 5.64002C21.7909 5.56336 21.8784 5.53051 21.966 5.57431C22.0425 5.61812 22.0753 5.70562 22.0425 5.78205L21.5831 6.68989C21.5394 6.76644 21.452 6.7994 21.3645 6.7556Z" fill="#F3F3F3"/>
<path d="M21.3633 6.76663C21.2757 6.72283 21.2429 6.62436 21.2866 6.53686L21.746 5.62914C21.7897 5.54153 21.8883 5.50878 21.9757 5.55248C22.0632 5.59628 22.096 5.69474 22.0522 5.78223L21.5929 6.68996C21.5491 6.77746 21.4508 6.81043 21.3633 6.76663ZM21.9648 5.57438C21.8882 5.54164 21.8007 5.56343 21.7679 5.63998L21.3085 6.54782C21.2758 6.61342 21.3085 6.70091 21.3741 6.74472C21.4507 6.77746 21.5382 6.75567 21.571 6.67912L22.0304 5.77128C22.0632 5.70569 22.0304 5.61819 21.9648 5.57438Z" fill="white"/>
<path d="M21.5836 8.37365C21.5071 8.319 21.4852 8.22055 21.5398 8.15495L22.8086 6.26268C22.8523 6.18613 22.9509 6.17518 23.0273 6.21899C23.104 6.27363 23.1258 6.37208 23.0711 6.43768L21.8023 8.32995C21.7586 8.4065 21.6602 8.4284 21.5836 8.37365Z" fill="#F3F3F3"/>
<path d="M21.5825 8.38466C21.506 8.33001 21.4841 8.22061 21.5279 8.14406L22.7966 6.25185C22.8512 6.1753 22.9497 6.1534 23.0372 6.20815C23.1137 6.2628 23.1356 6.3722 23.0919 6.44875L21.8231 8.34096C21.7685 8.41751 21.6591 8.4393 21.5825 8.38466ZM23.0262 6.23006C22.9607 6.18625 22.8622 6.1972 22.8185 6.2628L21.5497 8.15502C21.506 8.2205 21.5278 8.30811 21.5935 8.3518C21.6591 8.39561 21.7575 8.38466 21.8012 8.31906L23.07 6.43779C23.1137 6.3722 23.0919 6.27375 23.0262 6.23006Z" fill="white"/>
<path d="M23.1787 7.96861C23.1132 7.91385 23.0913 7.8154 23.146 7.7498L23.7803 6.95135C23.8349 6.88587 23.9334 6.8748 23.999 6.92956C24.0647 6.9842 24.0865 7.08266 24.0317 7.14825L23.3975 7.9467C23.3428 8.0123 23.2443 8.02325 23.1787 7.96861Z" fill="#F3F3F3"/>
<path d="M23.1703 7.97913C23.0937 7.92437 23.0828 7.81496 23.1376 7.73841L23.7718 6.94005C23.8265 6.86339 23.9359 6.85244 24.0124 6.91815C24.0889 6.97279 24.0999 7.0822 24.0451 7.15875L23.4109 7.95722C23.3562 8.03378 23.2468 8.04473 23.1703 7.97913ZM23.9905 6.93994C23.925 6.88529 23.8374 6.89624 23.7828 6.96184L23.1484 7.76032C23.1047 7.82591 23.1157 7.91342 23.1811 7.96806C23.2468 8.02282 23.3343 8.01187 23.389 7.94627L24.0233 7.1478C24.0672 7.0822 24.056 6.98364 23.9905 6.93994Z" fill="white"/>
<path d="M23.0704 9.61002C23.0048 9.54443 23.0048 9.44598 23.0704 9.39122L24.689 7.7835C24.7547 7.71791 24.853 7.72875 24.9078 7.7835C24.9624 7.83815 24.9734 7.94755 24.9078 8.00219L23.3001 9.61002C23.2344 9.67562 23.136 9.67562 23.0704 9.61002Z" fill="#F3F3F3"/>
<path d="M23.0588 9.62037C23.0272 9.58828 23.0095 9.54508 23.0095 9.50007C23.0095 9.45507 23.0272 9.41187 23.0588 9.37978L24.6775 7.77193C24.7096 7.74035 24.7528 7.72266 24.7978 7.72266C24.8429 7.72266 24.8861 7.74035 24.9182 7.77193C24.9497 7.80403 24.9674 7.84723 24.9674 7.89223C24.9674 7.93723 24.9497 7.98044 24.9182 8.01253L23.2994 9.62026C23.2673 9.6518 23.2241 9.66948 23.1791 9.66948C23.134 9.66948 23.0908 9.65191 23.0588 9.62037ZM24.9072 7.78289C24.8526 7.72813 24.7541 7.72813 24.6995 7.78289L23.0807 9.39062C23.0259 9.44537 23.0259 9.54382 23.0807 9.59847C23.1353 9.65323 23.2338 9.65323 23.2884 9.59847L24.9072 7.99074C24.9619 7.93598 24.9619 7.84848 24.9072 7.78289Z" fill="white"/>
<path d="M24.7094 9.52131C24.6547 9.45572 24.6547 9.35727 24.7203 9.30251L25.4968 8.64634C25.5624 8.5917 25.6609 8.60254 25.7156 8.66824C25.7702 8.73384 25.7702 8.83229 25.7047 8.88693L24.9282 9.54321C24.8625 9.59786 24.764 9.58691 24.7094 9.52131Z" fill="#F3F3F3"/>
<path d="M24.702 9.53371C24.6364 9.45717 24.6474 9.34776 24.7129 9.29312L25.4894 8.63682C25.555 8.57122 25.6644 8.58217 25.73 8.65872C25.7957 8.73527 25.7848 8.84467 25.7192 8.89932L24.9426 9.55562C24.8771 9.6211 24.7675 9.61026 24.702 9.53371ZM25.7082 8.66967C25.6535 8.60408 25.566 8.60408 25.5005 8.64777L24.7239 9.30407C24.6693 9.35872 24.6583 9.44621 24.7129 9.51181C24.7676 9.57741 24.8552 9.57741 24.9207 9.53371L25.6973 8.87741C25.7629 8.82277 25.7629 8.73527 25.7082 8.66967Z" fill="white"/>
<path d="M24.2743 11.0963C24.2196 11.0197 24.2415 10.9213 24.3181 10.8775L26.2211 9.60873C26.2976 9.56492 26.3961 9.58683 26.4398 9.65254C26.4945 9.72909 26.4726 9.82754 26.3961 9.87123L24.4931 11.14C24.4274 11.1838 24.3289 11.1619 24.2743 11.0963Z" fill="#F3F3F3"/>
<path d="M24.2625 11.0978C24.2079 11.0213 24.2298 10.9119 24.3064 10.8572L26.2094 9.58837C26.286 9.53373 26.3954 9.55563 26.45 9.64313C26.5048 9.71968 26.4828 9.82908 26.4063 9.88361L24.5033 11.1526C24.4266 11.2073 24.3173 11.1853 24.2625 11.0978ZM26.4281 9.66503C26.3844 9.59933 26.2969 9.57742 26.2313 9.62123L24.3281 10.8899C24.2627 10.9338 24.2406 11.0213 24.2954 11.0978C24.3391 11.1634 24.4266 11.1853 24.4923 11.1416L26.3954 9.87277C26.461 9.81813 26.4719 9.73052 26.4281 9.66503Z" fill="white"/>
<path d="M25.903 11.3275C25.8591 11.2508 25.881 11.1525 25.9576 11.1087L26.8436 10.6056C26.9201 10.5618 27.0186 10.5947 27.0623 10.6711C27.1061 10.7478 27.0842 10.8461 27.0076 10.8899L26.1216 11.3931C26.0451 11.4368 25.9468 11.4041 25.903 11.3275Z" fill="#F3F3F3"/>
<path d="M25.8912 11.3384C25.8474 11.2509 25.8693 11.1524 25.9459 11.1087L26.8318 10.6056C26.9084 10.5618 27.0178 10.5947 27.0615 10.6711C27.1053 10.7587 27.0834 10.8572 27.0069 10.9009L26.1209 11.4041C26.0443 11.4478 25.9349 11.4149 25.8912 11.3384ZM27.0505 10.6822C27.0068 10.6056 26.9193 10.5837 26.8538 10.6274L25.9678 11.1306C25.9022 11.1743 25.8803 11.2618 25.913 11.3274C25.9568 11.404 26.0443 11.4259 26.1099 11.3822L26.9959 10.879C27.0615 10.8462 27.0834 10.7587 27.0505 10.6822Z" fill="white"/>
<path d="M25.1704 12.7813C25.1377 12.6938 25.1704 12.6063 25.2579 12.5735L27.3689 11.6986C27.4454 11.6657 27.5439 11.7094 27.5766 11.7859C27.6095 11.8734 27.5766 11.9609 27.4891 11.9937L25.3783 12.8687C25.3016 12.9015 25.2033 12.8687 25.1704 12.7813Z" fill="#F3F3F3"/>
<path d="M25.1587 12.7913C25.126 12.7039 25.1587 12.6054 25.2462 12.5616L27.3571 11.6867C27.3992 11.6708 27.4458 11.6723 27.4868 11.6907C27.5278 11.7092 27.5598 11.7431 27.5758 11.7851C27.6087 11.8726 27.5758 11.971 27.4883 12.0147L25.3775 12.8897C25.3354 12.9056 25.2888 12.9042 25.2478 12.8857C25.2068 12.8673 25.1747 12.8333 25.1587 12.7913ZM27.554 11.7961C27.5212 11.7195 27.4337 11.6867 27.3681 11.7086L25.2571 12.5835C25.1806 12.6163 25.1477 12.7039 25.1806 12.7804C25.2133 12.857 25.3008 12.8898 25.3665 12.8679L27.4774 11.9929C27.554 11.9602 27.5869 11.8726 27.554 11.7961Z" fill="white"/>
<path d="M26.7118 13.3278C26.6791 13.2401 26.7227 13.1528 26.8102 13.1199L27.7726 12.8026C27.8492 12.7699 27.9476 12.8245 27.9695 12.9011C28.0023 12.9886 27.9586 13.0761 27.8711 13.1089L26.9087 13.4262C26.8321 13.4589 26.7446 13.4155 26.7118 13.3278Z" fill="#F3F3F3"/>
<path d="M26.6999 13.3385C26.6672 13.251 26.7109 13.1526 26.8094 13.1198L27.7717 12.8026C27.8592 12.7698 27.9577 12.8245 27.9905 12.9121C28.0232 12.9995 27.9796 13.0979 27.881 13.1308L26.9187 13.448C26.8312 13.4698 26.7328 13.426 26.6999 13.3385ZM27.9686 12.923C27.9467 12.8464 27.8592 12.8026 27.7827 12.8245L26.8203 13.1417C26.7437 13.1635 26.7109 13.251 26.7328 13.3277C26.7547 13.4042 26.8422 13.4479 26.9187 13.426L27.8811 13.1089C27.9577 13.0761 27.9905 12.9996 27.9686 12.923Z" fill="white"/>
<path d="M25.7292 14.6296C25.7073 14.5421 25.7619 14.4546 25.8494 14.4437L28.0915 14.0062C28.1789 13.9843 28.2555 14.0499 28.2773 14.1374C28.2992 14.2249 28.2446 14.3124 28.1571 14.3233L25.915 14.7608C25.8275 14.7718 25.7402 14.7171 25.7292 14.6296Z" fill="#F3F3F3"/>
<path d="M25.7052 14.6302C25.6833 14.5317 25.7489 14.4442 25.8364 14.4223L28.0786 13.9847C28.1661 13.9628 28.2536 14.0286 28.2754 14.127C28.2973 14.2254 28.2317 14.3129 28.1442 14.3348L25.902 14.7723C25.8146 14.7942 25.727 14.7288 25.7052 14.6302ZM28.2536 14.1379C28.2427 14.0613 28.1661 14.0067 28.0896 14.0176L25.8473 14.4551C25.7708 14.4661 25.7161 14.5535 25.7379 14.6302C25.7489 14.7067 25.8254 14.7614 25.9021 14.7504L28.1442 14.3129C28.2208 14.291 28.2754 14.2144 28.2536 14.1379Z" fill="white"/>
<path d="M27.1281 15.4724C27.1172 15.3849 27.1718 15.3083 27.2593 15.2973L28.2655 15.177C28.353 15.1661 28.4297 15.2317 28.4405 15.3192C28.4515 15.4068 28.3968 15.4833 28.3093 15.4943L27.303 15.6145C27.2265 15.6255 27.1391 15.5599 27.1281 15.4724Z" fill="#F3F3F3"/>
<path d="M27.1162 15.4726C27.1052 15.3741 27.1708 15.2866 27.2583 15.2757L28.2645 15.1555C28.352 15.1445 28.4395 15.2101 28.4504 15.3085C28.4614 15.407 28.3958 15.4945 28.3083 15.5054L27.302 15.6257C27.2146 15.6366 27.127 15.571 27.1162 15.4726ZM28.4395 15.3195C28.4286 15.243 28.3521 15.1772 28.2754 15.1882L27.2693 15.3085C27.1927 15.3195 27.138 15.396 27.1489 15.4726C27.1599 15.5491 27.2364 15.6148 27.313 15.6039L28.3192 15.4835C28.3958 15.4726 28.4503 15.396 28.4395 15.3195Z" fill="white"/>
<path d="M25.9041 16.5331C25.9041 16.4456 25.9696 16.3691 26.0572 16.3691H28.3432C28.4307 16.3691 28.4963 16.4456 28.4963 16.5331C28.4963 16.6206 28.4307 16.6972 28.3432 16.6972H26.0572C25.9697 16.6972 25.9041 16.6206 25.9041 16.5331Z" fill="#F3F3F3"/>
<path d="M25.8923 16.5324C25.8923 16.434 25.9688 16.3574 26.0563 16.3574H28.3423C28.4298 16.3574 28.5063 16.434 28.5063 16.5324C28.5063 16.6308 28.4298 16.7074 28.3423 16.7074H26.0563C25.9688 16.7074 25.8923 16.6308 25.8923 16.5324ZM28.4844 16.5434C28.4844 16.4668 28.4188 16.3903 28.3421 16.3903H26.0564C25.9799 16.3903 25.9142 16.4557 25.9142 16.5434C25.9142 16.6199 25.9799 16.6964 26.0564 16.6964H28.3424C28.4189 16.6855 28.4844 16.6199 28.4844 16.5434Z" fill="white"/>
<path d="M27.119 17.6375C27.1298 17.55 27.1955 17.4844 27.283 17.4844L28.3002 17.5609C28.3876 17.5719 28.4532 17.6484 28.4423 17.7359C28.4314 17.8234 28.3657 17.889 28.2782 17.889L27.2611 17.8125C27.1846 17.8015 27.119 17.725 27.119 17.6375Z" fill="#F3F3F3"/>
<path d="M27.1072 17.6368C27.1182 17.5383 27.1947 17.4727 27.2822 17.4727L28.2996 17.5493C28.387 17.5602 28.4636 17.6368 28.4526 17.7352C28.4418 17.8337 28.3651 17.8993 28.2776 17.8993L27.2603 17.8227C27.1728 17.8118 27.1072 17.7243 27.1072 17.6368ZM28.4418 17.7352C28.4526 17.6587 28.387 17.5821 28.3104 17.5821L27.2931 17.5056C27.2166 17.5056 27.1509 17.5602 27.14 17.6478C27.1291 17.7243 27.1947 17.8008 27.2713 17.8008L28.2886 17.8774C28.3651 17.8774 28.4308 17.8119 28.4418 17.7352Z" fill="white"/>
<path d="M25.7062 18.4354C25.7281 18.3479 25.8046 18.2931 25.8921 18.3042L28.1343 18.7526C28.2218 18.7744 28.2765 18.851 28.2546 18.9385C28.2327 19.026 28.1562 19.0807 28.0687 19.0698L25.8264 18.6213C25.7499 18.6104 25.6952 18.5229 25.7062 18.4354Z" fill="#F3F3F3"/>
<path d="M25.6945 18.4366C25.7164 18.3381 25.8039 18.2835 25.8914 18.2943L28.1337 18.7428C28.2212 18.7646 28.2868 18.8521 28.2649 18.9506C28.2431 19.049 28.1556 19.1038 28.0681 19.0928L25.8257 18.6444C25.7382 18.6225 25.6836 18.5349 25.6945 18.4366ZM28.2431 18.9506C28.2541 18.874 28.2104 18.7975 28.1337 18.7756L25.8913 18.3272C25.8149 18.3163 25.7382 18.36 25.7163 18.4475C25.7055 18.5241 25.7492 18.6006 25.8258 18.6225L28.0681 19.0709C28.1556 19.0819 28.2212 19.0271 28.2431 18.9506Z" fill="white"/>
<path d="M26.6909 19.7479C26.6959 19.7271 26.705 19.7074 26.7176 19.6901C26.7302 19.6728 26.7461 19.6581 26.7644 19.647C26.7826 19.6358 26.8029 19.6283 26.8241 19.625C26.8453 19.6217 26.8669 19.6226 26.8877 19.6276L27.8721 19.901C27.9596 19.9229 28.0033 20.0105 27.9815 20.0979C27.9765 20.1187 27.9674 20.1384 27.9548 20.1557C27.9422 20.1731 27.9263 20.1877 27.908 20.1989C27.8897 20.2101 27.8694 20.2176 27.8482 20.2209C27.827 20.2242 27.8054 20.2233 27.7846 20.2183L26.8002 19.9448C26.7127 19.9229 26.6691 19.8354 26.6909 19.7479Z" fill="#F3F3F3"/>
<path d="M26.6783 19.748C26.7002 19.6605 26.7987 19.5949 26.8862 19.6277L27.8706 19.901C27.9581 19.9229 28.0128 20.0214 27.9909 20.1089C27.969 20.1964 27.8706 20.2619 27.7831 20.2292L26.7987 19.9558C26.7112 19.9339 26.6563 19.8463 26.6783 19.748ZM27.9581 20.1089C27.98 20.0323 27.9362 19.9448 27.8596 19.9229L26.8752 19.6495C26.7987 19.6276 26.7221 19.6714 26.7002 19.7589C26.6784 19.8355 26.7221 19.9229 26.7987 19.9448L27.7831 20.2183C27.8596 20.2292 27.9362 20.1855 27.9581 20.1089Z" fill="white"/>
<path d="M25.147 20.2738C25.1797 20.1863 25.2783 20.1534 25.3547 20.1863L27.4657 21.0612C27.5423 21.094 27.586 21.1925 27.5532 21.269C27.5204 21.3566 27.4219 21.3893 27.3454 21.3566L25.2345 20.4816C25.147 20.4489 25.1141 20.3502 25.147 20.2738Z" fill="#F3F3F3"/>
<path d="M25.1352 20.2618C25.1513 20.2198 25.1833 20.1858 25.2243 20.1673C25.2653 20.1489 25.312 20.1474 25.354 20.1633L27.4649 21.0384C27.5524 21.0712 27.5852 21.1697 27.5524 21.2681C27.5364 21.3102 27.5044 21.3441 27.4634 21.3626C27.4223 21.381 27.3757 21.3825 27.3336 21.3666L25.2227 20.4916C25.1352 20.4477 25.1025 20.3493 25.1352 20.2618ZM27.5305 21.2572C27.5633 21.1806 27.5305 21.0931 27.454 21.0603L25.3431 20.1852C25.2665 20.1525 25.19 20.1962 25.1571 20.2727C25.1244 20.3493 25.1571 20.4368 25.2337 20.4697L27.3446 21.3447C27.4211 21.3666 27.5086 21.3337 27.5305 21.2572Z" fill="white"/>
<path d="M25.8573 21.7494C25.9011 21.6729 25.9885 21.64 26.0651 21.6729L26.9728 22.1323C27.0493 22.165 27.0822 22.2635 27.0385 22.351C26.9947 22.4275 26.9072 22.4605 26.8307 22.4275L25.923 21.9682C25.8464 21.9244 25.8135 21.826 25.8573 21.7494Z" fill="#F3F3F3"/>
<path d="M25.8491 21.7384C25.8929 21.6509 25.9913 21.6182 26.0788 21.6619L26.9866 22.1213C27.0741 22.1651 27.1069 22.2636 27.0631 22.3509C27.0194 22.4384 26.9209 22.4713 26.8335 22.4275L25.9257 21.9682C25.8381 21.9355 25.8054 21.8259 25.8491 21.7384ZM27.0304 22.34C27.0631 22.2634 27.0412 22.1759 26.9647 22.1432L26.0569 21.6838C25.9912 21.651 25.9038 21.6838 25.86 21.7494C25.8273 21.8259 25.8491 21.9134 25.9256 21.9463L26.8334 22.4057C26.91 22.4384 26.9975 22.4167 27.0304 22.34Z" fill="white"/>
<path d="M24.2508 21.9569C24.3056 21.8804 24.3931 21.8585 24.4696 21.9131L26.3728 23.1819C26.4493 23.2256 26.4603 23.3242 26.4166 23.4006C26.3618 23.4773 26.2743 23.4991 26.1977 23.4444L24.2946 22.1756C24.2181 22.121 24.1962 22.0225 24.2508 21.9569Z" fill="#F3F3F3"/>
<path d="M24.2422 21.9461C24.2969 21.8696 24.4064 21.8477 24.4829 21.8915L26.3861 23.1602C26.4626 23.2148 26.4845 23.3133 26.4298 23.4008C26.3751 23.4774 26.2657 23.4992 26.1893 23.4555L24.286 22.1867C24.1985 22.1321 24.1875 22.0227 24.2422 21.9461ZM26.397 23.3898C26.4407 23.3243 26.4298 23.2258 26.3643 23.1821L24.461 21.9133C24.3954 21.8696 24.3079 21.8915 24.2641 21.9571C24.2204 22.0227 24.2313 22.1211 24.2968 22.1648L26.2001 23.4336C26.2657 23.4774 26.3532 23.4554 26.397 23.3898Z" fill="white"/>
<path d="M24.6579 23.5443C24.7125 23.4786 24.811 23.4568 24.8766 23.5116L25.6751 24.1349C25.7407 24.1896 25.7516 24.288 25.697 24.3537C25.6423 24.4192 25.5439 24.4412 25.4781 24.3865L24.6797 23.763C24.6142 23.7083 24.6031 23.6099 24.6579 23.5443Z" fill="#F3F3F3"/>
<path d="M24.6452 23.5337C24.6998 23.4572 24.8093 23.4462 24.8859 23.501L25.6842 24.1243C25.7607 24.179 25.7718 24.2884 25.717 24.3649C25.6624 24.4416 25.553 24.4524 25.4766 24.3978L24.6779 23.7743C24.6014 23.7197 24.5906 23.6103 24.6452 23.5337ZM25.6952 24.3541C25.7498 24.2884 25.7388 24.2009 25.6732 24.1462L24.8749 23.5228C24.8093 23.4791 24.7218 23.49 24.6672 23.5555C24.6124 23.6212 24.6233 23.7087 24.6889 23.7634L25.4874 24.3868C25.553 24.4306 25.6406 24.4196 25.6952 24.3541Z" fill="white"/>
<path d="M23.027 23.434C23.0927 23.3684 23.1912 23.3684 23.2458 23.434L24.8645 25.0417C24.9303 25.1074 24.9193 25.2058 24.8645 25.2605C24.7991 25.3261 24.7005 25.3261 24.6458 25.2605L23.027 23.6528C22.9724 23.598 22.9724 23.4886 23.027 23.434Z" fill="#F3F3F3"/>
<path d="M23.0278 23.4243C23.0599 23.3927 23.1032 23.375 23.1482 23.375C23.1932 23.375 23.2364 23.3927 23.2685 23.4243L24.8873 25.032C24.9189 25.0641 24.9366 25.1073 24.9366 25.1524C24.9366 25.1974 24.9189 25.2406 24.8873 25.2727C24.8552 25.3043 24.812 25.322 24.767 25.322C24.722 25.322 24.6788 25.3043 24.6467 25.2727L23.0278 23.665C22.9513 23.5993 22.9513 23.49 23.0278 23.4243ZM24.8654 25.2508C24.9202 25.1962 24.9202 25.0977 24.8654 25.0431L23.2466 23.4353C23.192 23.3806 23.0935 23.3806 23.0389 23.4353C22.9841 23.4899 22.9841 23.5884 23.0389 23.643L24.6576 25.2508C24.7123 25.3165 24.7999 25.3165 24.8654 25.2508Z" fill="white"/>
<path d="M23.125 25.0631C23.1907 25.0085 23.2891 25.0085 23.3438 25.0741L24.0111 25.8397C24.0657 25.9054 24.0548 26.0038 23.9891 26.0585C23.9236 26.1131 23.825 26.1131 23.7704 26.0475L23.1031 25.2819C23.0485 25.2273 23.0594 25.1288 23.125 25.0631Z" fill="#F3F3F3"/>
<path d="M23.1131 25.0635C23.1897 24.9981 23.2881 25.0089 23.3536 25.0745L24.0208 25.8401C24.0864 25.9058 24.0755 26.0151 23.9989 26.0808C23.9224 26.1464 23.8239 26.1354 23.7583 26.0698L23.0911 25.3042C23.0364 25.2277 23.0365 25.1183 23.1131 25.0635ZM23.9881 26.0589C24.0536 26.0042 24.0536 25.9166 24.0099 25.8511L23.3426 25.0854C23.288 25.0308 23.2005 25.0198 23.1349 25.0745C23.0693 25.1292 23.0693 25.2167 23.113 25.2822L23.7802 26.0479C23.8349 26.1135 23.9226 26.1135 23.9881 26.0589Z" fill="white"/>
<path d="M21.5488 24.6494C21.6253 24.5948 21.7238 24.6167 21.7676 24.6932L23.0363 26.5853C23.0801 26.6619 23.0582 26.7603 22.9926 26.8041C22.916 26.8588 22.8176 26.8369 22.7738 26.7603L21.505 24.8681C21.4612 24.7917 21.4832 24.6931 21.5488 24.6494Z" fill="#F3F3F3"/>
<path d="M21.551 24.6377C21.6276 24.5831 21.737 24.605 21.7916 24.6815L23.0603 26.5737C23.115 26.6501 23.093 26.7595 23.0057 26.8141C22.929 26.8689 22.8197 26.847 22.765 26.7704L21.4964 24.8783C21.4417 24.7909 21.4636 24.6924 21.551 24.6377ZM22.9947 26.7923C23.0603 26.7485 23.0822 26.661 23.0384 26.5954L21.7698 24.7033C21.726 24.6378 21.6385 24.6268 21.5621 24.6706C21.4964 24.7143 21.4745 24.8018 21.5183 24.8675L22.7869 26.7595C22.8307 26.8141 22.9292 26.8361 22.9947 26.7923Z" fill="white"/>
<path d="M21.3203 26.2664C21.3968 26.2227 21.4953 26.2446 21.539 26.3212L22.0422 27.2071C22.0859 27.2837 22.053 27.3821 21.9765 27.4258C21.8999 27.4696 21.8015 27.4477 21.7578 27.3712L21.2547 26.4852C21.2219 26.4087 21.2439 26.3101 21.3203 26.2664Z" fill="#F3F3F3"/>
<path d="M21.3197 26.2567C21.4072 26.2129 21.5056 26.2348 21.5493 26.3114L22.0524 27.1974C22.0962 27.274 22.0743 27.3834 21.987 27.4271C21.8993 27.4709 21.8009 27.449 21.7572 27.3725L21.2541 26.4864C21.2103 26.4099 21.2323 26.3114 21.3197 26.2567ZM21.9759 27.4163C22.0416 27.3725 22.0743 27.2849 22.0306 27.2193L21.5275 26.3333C21.4837 26.2677 21.3962 26.2458 21.3306 26.2785C21.2649 26.3223 21.2322 26.4099 21.2759 26.4755L21.7791 27.3615C21.8118 27.4271 21.9103 27.4601 21.9759 27.4163Z" fill="white"/>
<path d="M19.8658 25.5459C19.9533 25.5131 20.0408 25.5459 20.0737 25.6224L20.9596 27.7333C20.9924 27.8099 20.9487 27.9083 20.8721 27.941C20.7956 27.9739 20.6971 27.941 20.6644 27.8645L19.7784 25.7537C19.7456 25.677 19.7893 25.5787 19.8658 25.5459Z" fill="#F3F3F3"/>
<path d="M19.8649 25.5339C19.9524 25.5012 20.0508 25.5339 20.0946 25.6214L20.9805 27.7324C20.9964 27.7744 20.9949 27.8211 20.9765 27.8621C20.958 27.903 20.9241 27.9351 20.8821 27.9511C20.7946 27.9839 20.6961 27.9511 20.6524 27.8636L19.7665 25.7527C19.7337 25.6761 19.7775 25.5777 19.8649 25.5339ZM20.8602 27.9293C20.9367 27.8964 20.9696 27.8089 20.9367 27.7433L20.0508 25.6324C20.0181 25.5558 19.9306 25.523 19.854 25.5558C19.7775 25.5886 19.7445 25.6761 19.7775 25.7418L20.6633 27.8527C20.7071 27.9293 20.7836 27.962 20.8602 27.9293Z" fill="white"/>
<path d="M19.3297 27.0987C19.4173 27.066 19.5047 27.1097 19.5375 27.1972L19.8548 28.1597C19.8875 28.2362 19.8329 28.3347 19.7564 28.3566C19.6689 28.3893 19.5814 28.3456 19.5486 28.2581L19.2314 27.2956C19.1986 27.2191 19.2422 27.1316 19.3297 27.0987Z" fill="#F3F3F3"/>
<path d="M19.3198 27.0871C19.3619 27.0712 19.4085 27.0727 19.4495 27.0911C19.4905 27.1096 19.5225 27.1435 19.5385 27.1855L19.8558 28.148C19.8886 28.2355 19.8339 28.3339 19.7463 28.3668C19.7042 28.3826 19.6576 28.3812 19.6166 28.3627C19.5756 28.3443 19.5436 28.3103 19.5276 28.2683L19.2104 27.3059C19.1885 27.2184 19.2323 27.1199 19.3198 27.0871ZM19.7464 28.3448C19.823 28.323 19.8667 28.2355 19.8449 28.1589L19.5276 27.1965C19.5058 27.1199 19.4183 27.0871 19.3417 27.109C19.265 27.1309 19.2213 27.2184 19.2432 27.2949L19.5604 28.2574C19.566 28.2759 19.5754 28.2931 19.5881 28.3078C19.6007 28.3225 19.6163 28.3343 19.6339 28.3426C19.6514 28.3509 19.6705 28.3553 19.6899 28.3557C19.7093 28.3561 19.7285 28.3523 19.7464 28.3448Z" fill="white"/>
<path d="M18.0407 26.1025C18.1281 26.0806 18.2158 26.1353 18.2266 26.2228L18.6861 28.4651C18.708 28.5525 18.6423 28.6292 18.5547 28.6509C18.4673 28.6728 18.3797 28.6182 18.3689 28.5307L17.9093 26.2884C17.8985 26.2118 17.9532 26.1244 18.0407 26.1025Z" fill="#F3F3F3"/>
<path d="M18.0402 26.0921C18.1385 26.0703 18.226 26.1359 18.2479 26.2234L18.7072 28.4658C18.7291 28.5532 18.6634 28.6517 18.5759 28.6627C18.4775 28.6846 18.39 28.619 18.3682 28.5314L17.9088 26.289C17.887 26.2015 17.9419 26.1139 18.0402 26.0921ZM18.554 28.6407C18.6307 28.6299 18.6853 28.5532 18.6744 28.4657L18.215 26.2234C18.2042 26.1468 18.1167 26.0922 18.04 26.114C17.9635 26.1249 17.9089 26.2015 17.9198 26.289L18.3792 28.5314C18.4009 28.608 18.4774 28.6515 18.554 28.6407Z" fill="white"/>
<path d="M17.2075 27.5248C17.295 27.5139 17.3716 27.5687 17.3935 27.6561L17.5247 28.6623C17.5356 28.7498 17.47 28.8264 17.3824 28.8373C17.295 28.8483 17.2185 28.7936 17.1966 28.7061L17.0654 27.6998C17.0545 27.6123 17.1201 27.5358 17.2075 27.5248Z" fill="#F3F3F3"/>
<path d="M17.2069 27.5148C17.3054 27.504 17.3929 27.5696 17.4038 27.6571L17.5351 28.6633C17.5461 28.7508 17.4804 28.8383 17.3819 28.8493C17.2834 28.8602 17.1959 28.7946 17.1849 28.707L17.0537 27.7008C17.0427 27.6133 17.1084 27.5258 17.2069 27.5148ZM17.371 28.8274C17.4476 28.8165 17.5133 28.7399 17.5023 28.6633L17.371 27.6571C17.36 27.5805 17.2834 27.5258 17.2069 27.5367C17.1303 27.5477 17.0645 27.6242 17.0755 27.7008L17.2069 28.7071C17.2178 28.7837 17.2944 28.8383 17.371 28.8274Z" fill="white"/>
<path d="M16.0837 26.3008C16.1712 26.3008 16.2477 26.3665 16.2477 26.454V28.7399C16.2477 28.8274 16.1712 28.8931 16.0837 28.8931C15.9962 28.8931 15.9197 28.8274 15.9197 28.7399V26.454C15.9306 26.3665 15.9962 26.3008 16.0837 26.3008Z" fill="#F3F3F3"/>
<path d="M16.0791 26.2891C16.1776 26.2891 16.2541 26.3657 16.2541 26.4532V28.7391C16.2541 28.8266 16.1776 28.9032 16.0791 28.9032C15.9807 28.9032 15.9041 28.8266 15.9041 28.7391V26.4533C15.9041 26.3658 15.9916 26.2891 16.0791 26.2891ZM16.0791 28.8814C16.1557 28.8814 16.2322 28.8158 16.2322 28.7391V26.4533C16.2322 26.3766 16.1666 26.311 16.0791 26.311C16.0026 26.311 15.926 26.3766 15.926 26.4533V28.7391C15.9369 28.8158 16.0026 28.8814 16.0791 28.8814Z" fill="white"/>
<path d="M14.9877 27.5246C15.0752 27.5355 15.1408 27.6011 15.1408 27.6886L15.0642 28.7059C15.0534 28.7934 14.9767 28.859 14.8892 28.8481C14.8017 28.8371 14.7361 28.7715 14.7361 28.684L14.8127 27.6667C14.8236 27.5794 14.9002 27.5136 14.9877 27.5246Z" fill="#F3F3F3"/>
<path d="M14.9869 27.5148C15.0853 27.5258 15.1509 27.6023 15.1509 27.6898L15.0744 28.7071C15.0634 28.7946 14.9869 28.8712 14.8884 28.8602C14.7901 28.8493 14.7244 28.7727 14.7244 28.6852L14.8009 27.6679C14.8119 27.5696 14.8884 27.504 14.9869 27.5148ZM14.8884 28.8383C14.965 28.8383 15.0416 28.7837 15.0416 28.7071L15.1182 27.6898C15.1182 27.6133 15.0634 27.5477 14.9759 27.5367C14.8994 27.5367 14.8228 27.5914 14.8228 27.668L14.7463 28.6852C14.7463 28.7618 14.8118 28.8275 14.8884 28.8383Z" fill="white"/>
<path d="M14.1687 26.103C14.2562 26.1248 14.3108 26.2013 14.2999 26.2888L13.8514 28.5313C13.8295 28.6188 13.753 28.6736 13.6655 28.6515C13.578 28.6297 13.5234 28.5532 13.5343 28.4656L13.9827 26.2232C13.9937 26.1467 14.0812 26.092 14.1687 26.103Z" fill="#F3F3F3"/>
<path d="M14.1672 26.0912C14.2656 26.1131 14.3203 26.2007 14.3094 26.2881L13.8609 28.5305C13.839 28.618 13.7515 28.6836 13.6532 28.6616C13.5547 28.6397 13.5 28.5522 13.5109 28.4647L13.9594 26.2225C13.9813 26.135 14.0689 26.0801 14.1672 26.0912ZM13.6532 28.6397C13.7297 28.6507 13.8063 28.607 13.8282 28.5305L14.2765 26.2881C14.2875 26.2116 14.2438 26.135 14.1563 26.1131C14.0797 26.1023 14.0032 26.146 13.9813 26.2226L13.5328 28.4647C13.5219 28.5522 13.5765 28.618 13.6532 28.6397Z" fill="white"/>
<path d="M12.8555 27.0876C12.9431 27.1095 12.9977 27.197 12.9758 27.2845L12.7024 28.2688C12.6806 28.3563 12.5931 28.4 12.5056 28.3782C12.4847 28.3732 12.4651 28.3641 12.4478 28.3515C12.4304 28.3389 12.4158 28.323 12.4046 28.3047C12.3934 28.2864 12.3859 28.2661 12.3826 28.2449C12.3793 28.2237 12.3802 28.2021 12.3852 28.1813L12.6587 27.197C12.6806 27.1095 12.768 27.0658 12.8555 27.0876Z" fill="#F3F3F3"/>
<path d="M12.8548 27.0772C12.9424 27.099 13.008 27.1975 12.9751 27.285L12.7017 28.2694C12.6799 28.3569 12.5814 28.4116 12.4939 28.3896C12.4064 28.3678 12.3408 28.2694 12.3736 28.1819L12.647 27.1975C12.6689 27.11 12.7564 27.0553 12.8548 27.0772ZM12.4939 28.3569C12.5705 28.3788 12.658 28.335 12.6799 28.2584L12.9532 27.274C12.9751 27.1975 12.9314 27.1209 12.8439 27.099C12.7674 27.0771 12.6799 27.1209 12.658 27.1975L12.3845 28.1819C12.3736 28.2584 12.4173 28.335 12.4939 28.3569Z" fill="white"/>
<path d="M12.3182 25.5447C12.4057 25.5774 12.4385 25.6759 12.4057 25.7524L11.5308 27.8634C11.498 27.94 11.3995 27.9837 11.323 27.94C11.2464 27.8962 11.2026 27.8087 11.2354 27.7322L12.1104 25.6212C12.1431 25.5447 12.2418 25.5009 12.3182 25.5447Z" fill="#F3F3F3"/>
<path d="M12.3166 25.5347C12.3586 25.5507 12.3926 25.5827 12.4111 25.6237C12.4295 25.6647 12.4309 25.7114 12.4151 25.7535L11.54 27.8643C11.5072 27.9518 11.4087 27.9846 11.3103 27.9518C11.2683 27.9357 11.2343 27.9037 11.2159 27.8628C11.1974 27.8218 11.196 27.7751 11.2118 27.7331L12.0868 25.6221C12.1307 25.5347 12.2291 25.491 12.3166 25.5347ZM11.3212 27.93C11.3978 27.9627 11.4853 27.93 11.5181 27.8534L12.3932 25.7425C12.4259 25.666 12.3822 25.5893 12.3057 25.5566C12.2291 25.5238 12.1416 25.5566 12.1087 25.6331L11.2337 27.744C11.2118 27.8096 11.2447 27.8971 11.3212 27.93Z" fill="white"/>
<path d="M10.841 26.2462C10.9175 26.2899 10.9503 26.3774 10.9175 26.454L10.4581 27.3616C10.4143 27.4382 10.3268 27.471 10.2393 27.4272C10.1628 27.3835 10.13 27.2961 10.1628 27.2195L10.6223 26.3119C10.666 26.2353 10.7535 26.2024 10.841 26.2462Z" fill="#F3F3F3"/>
<path d="M10.8429 26.2341C10.9304 26.2778 10.9632 26.3763 10.9195 26.4637L10.4601 27.3715C10.4163 27.459 10.3178 27.4918 10.2304 27.448C10.1429 27.4043 10.1101 27.3058 10.1539 27.2184L10.6132 26.3107C10.657 26.2231 10.7554 26.1904 10.8429 26.2341ZM10.2414 27.4262C10.3179 27.459 10.4054 27.4371 10.4382 27.3605L10.8976 26.4529C10.9303 26.3872 10.8976 26.2997 10.832 26.256C10.7554 26.2232 10.6679 26.245 10.6351 26.3216L10.1757 27.2292C10.1429 27.2949 10.1757 27.3825 10.2414 27.4262Z" fill="white"/>
<path d="M10.625 24.6262C10.7015 24.6808 10.7234 24.7793 10.6688 24.8449L9.40001 26.7373C9.35632 26.8137 9.25775 26.8247 9.18132 26.781C9.10477 26.7262 9.08287 26.6279 9.13751 26.5621L10.4063 24.6697C10.45 24.5933 10.5484 24.5716 10.625 24.6262Z" fill="#F3F3F3"/>
<path d="M10.6233 24.6163C10.6998 24.671 10.7217 24.7804 10.6779 24.857L9.40917 26.7493C9.35452 26.8257 9.25606 26.8476 9.16856 26.793C9.09201 26.7382 9.07011 26.6289 9.1138 26.5522L10.3827 24.6601C10.4373 24.5835 10.5467 24.5616 10.6233 24.6163ZM9.17951 26.7711C9.245 26.8147 9.34357 26.8038 9.38726 26.7383L10.6561 24.846C10.6998 24.7804 10.678 24.6929 10.6123 24.6491C10.5467 24.6054 10.4483 24.6164 10.4046 24.6819L9.13571 26.5632C9.09201 26.6289 9.1138 26.7274 9.17951 26.7711Z" fill="white"/>
<path d="M9.02634 25.0311C9.09205 25.0857 9.11384 25.1842 9.0592 25.2498L8.42481 26.0482C8.37016 26.1138 8.27171 26.1247 8.20612 26.0701C8.14052 26.0154 8.11862 25.917 8.17337 25.8513L8.80765 25.0529C8.8623 24.9874 8.96075 24.9763 9.02634 25.0311Z" fill="#F3F3F3"/>
<path d="M9.03584 25.0197C9.11239 25.0743 9.12335 25.1838 9.06859 25.2603L8.43429 26.0588C8.37964 26.1353 8.27024 26.1463 8.19369 26.0807C8.11714 26.0259 8.10618 25.9166 8.16094 25.84L8.79524 25.0416C8.84989 24.9649 8.95929 24.9541 9.03584 25.0197ZM8.21559 26.0588C8.28107 26.1134 8.36869 26.1026 8.42333 26.0369L9.05775 25.2384C9.10155 25.1729 9.09049 25.0853 9.025 25.0306C8.95929 24.9759 8.87179 24.9868 8.81715 25.0526L8.18273 25.8509C8.13904 25.9166 8.1501 26.015 8.21559 26.0588Z" fill="white"/>
<path d="M9.13433 23.3911C9.19993 23.4566 9.19993 23.5552 9.13433 23.6098L7.51569 25.2175C7.44998 25.2833 7.35165 25.2723 7.29689 25.2175C7.24225 25.1629 7.2313 25.0535 7.29689 24.9989L8.90458 23.3911C8.97029 23.3254 9.06874 23.3254 9.13433 23.3911Z" fill="#F3F3F3"/>
<path d="M9.14849 23.3793C9.18 23.4114 9.19766 23.4546 9.19766 23.4995C9.19766 23.5445 9.18 23.5877 9.14849 23.6198L7.52974 25.2278C7.49765 25.2593 7.45447 25.277 7.4095 25.277C7.36453 25.277 7.32135 25.2593 7.28926 25.2278C7.25768 25.1957 7.23999 25.1525 7.23999 25.1074C7.23999 25.0624 7.25768 25.0192 7.28926 24.9871L8.9079 23.3793C8.94 23.3477 8.9832 23.3301 9.0282 23.3301C9.0732 23.3301 9.1164 23.3477 9.14849 23.3793ZM7.3001 25.2167C7.35474 25.2714 7.45319 25.2714 7.50784 25.2167L9.12659 23.6088C9.18135 23.5542 9.18135 23.4557 9.12659 23.4011C9.07195 23.3463 8.9735 23.3463 8.91886 23.4011L7.3001 25.0089C7.24546 25.0635 7.24546 25.1512 7.3001 25.2167Z" fill="white"/>
<path d="M7.49694 23.4788C7.55158 23.5443 7.55158 23.6429 7.48599 23.6975L6.70944 24.3539C6.64384 24.4086 6.54539 24.3976 6.49063 24.332C6.43599 24.2663 6.43599 24.1679 6.50158 24.1132L7.27813 23.4569C7.34384 23.4022 7.44218 23.4131 7.49694 23.4788Z" fill="#F3F3F3"/>
<path d="M7.50757 23.4672C7.57316 23.5438 7.56221 23.6531 7.49661 23.7079L6.72006 24.364C6.65446 24.4297 6.54506 24.4188 6.47946 24.3422C6.41375 24.2656 6.4247 24.1563 6.4903 24.1015L7.26697 23.4454C7.33245 23.3798 7.44209 23.3907 7.50757 23.4672ZM6.50125 24.3313C6.55601 24.3969 6.64351 24.3969 6.709 24.3532L7.48566 23.6969C7.54031 23.6423 7.55126 23.5547 7.49661 23.4892C7.44186 23.4235 7.35436 23.4235 7.28887 23.4673L6.51221 24.1235C6.44661 24.1781 6.44661 24.2658 6.50125 24.3313Z" fill="white"/>
<path d="M7.93209 21.9024C7.98674 21.9791 7.96484 22.0774 7.88829 22.1212L5.9852 23.3899C5.90866 23.4336 5.81021 23.4117 5.76651 23.3461C5.71175 23.2696 5.73366 23.1712 5.81021 23.1273L7.7134 21.8587C7.77911 21.815 7.87733 21.8368 7.93209 21.9024Z" fill="#F3F3F3"/>
<path d="M7.94221 21.9027C7.99686 21.9794 7.97496 22.0887 7.89841 22.1435L5.99535 23.4121C5.9188 23.4669 5.8094 23.4449 5.75476 23.3575C5.7 23.2809 5.72202 23.1715 5.79845 23.1169L7.70162 21.8481C7.77817 21.7935 7.88757 21.8154 7.94221 21.9027ZM5.77666 23.3356C5.82036 23.4012 5.90785 23.4231 5.97345 23.3794L7.87651 22.1106C7.94221 22.0669 7.964 21.9794 7.90936 21.9029C7.86567 21.8372 7.77817 21.8154 7.71246 21.8591L5.8094 23.1278C5.74381 23.1825 5.73286 23.27 5.77666 23.3356Z" fill="white"/>
<path d="M6.30444 21.6731C6.34825 21.7496 6.32635 21.8481 6.2498 21.8919L5.36383 22.3949C5.28728 22.4386 5.18883 22.4059 5.14514 22.3293C5.10133 22.2528 5.12323 22.1543 5.19978 22.1105L6.08575 21.6075C6.16229 21.5637 6.26064 21.5965 6.30444 21.6731Z" fill="#F3F3F3"/>
<path d="M6.31548 21.6634C6.35917 21.7509 6.33727 21.8493 6.26072 21.8931L5.37478 22.3962C5.29823 22.4399 5.18883 22.4071 5.14514 22.3306C5.10133 22.2431 5.12323 22.1446 5.19978 22.1008L6.08572 21.5978C6.16227 21.554 6.27179 21.5868 6.31548 21.6634ZM5.15597 22.3196C5.19978 22.3962 5.28728 22.4181 5.35287 22.3743L6.23882 21.8712C6.30441 21.8274 6.32631 21.7399 6.29357 21.6743C6.24977 21.5978 6.16227 21.5759 6.09667 21.6197L5.21073 22.1227C5.14514 22.1555 5.12311 22.2431 5.15597 22.3196Z" fill="white"/>
<path d="M7.03758 20.2191C7.07033 20.3066 7.03758 20.3942 6.95008 20.4269L4.83913 21.3019C4.76258 21.3348 4.66413 21.2911 4.63139 21.2144C4.59854 21.1269 4.63139 21.0394 4.71889 21.0067L6.82984 20.1316C6.90639 20.0989 7.00484 20.1316 7.03758 20.2191Z" fill="#F3F3F3"/>
<path d="M7.04854 20.2071C7.08128 20.2946 7.04854 20.393 6.96104 20.4367L4.85008 21.3117C4.80802 21.3276 4.76139 21.3261 4.7204 21.3077C4.67942 21.2892 4.64741 21.2553 4.63139 21.2133C4.59854 21.1258 4.63139 21.0273 4.71889 20.9836L6.82984 20.1086C6.8719 20.0928 6.91853 20.0942 6.95952 20.1127C7.00051 20.1311 7.03252 20.1651 7.04854 20.2071ZM4.65318 21.2023C4.68604 21.279 4.77354 21.3118 4.83913 21.2898L6.95008 20.4148C7.02663 20.3821 7.05949 20.2946 7.02663 20.218C6.99389 20.1415 6.90639 20.1086 6.84068 20.1305L4.72973 21.0055C4.65318 21.0383 4.62044 21.1257 4.65318 21.2023Z" fill="white"/>
<path d="M5.4931 19.6718C5.52584 19.7593 5.48215 19.8468 5.39464 19.8796L4.43214 20.1968C4.35559 20.2296 4.25714 20.1749 4.23523 20.0984C4.20249 20.0109 4.24619 19.9234 4.33369 19.8906L5.29619 19.5734C5.37274 19.5406 5.46024 19.5843 5.4931 19.6718Z" fill="#F3F3F3"/>
<path d="M5.50615 19.6618C5.53901 19.7493 5.49531 19.8478 5.39686 19.8806L4.43437 20.1978C4.34688 20.2305 4.24842 20.1759 4.21557 20.0884C4.18283 20.0009 4.22652 19.9024 4.32509 19.8697L5.28746 19.5524C5.37496 19.5306 5.4733 19.5742 5.50615 19.6618ZM4.23759 20.0775C4.25949 20.1541 4.34699 20.1979 4.42354 20.176L5.38602 19.8587C5.46257 19.8369 5.49543 19.7494 5.47352 19.6728C5.45162 19.5963 5.36412 19.5525 5.28757 19.5744L4.32509 19.8917C4.24854 19.9244 4.21568 20.001 4.23759 20.0775Z" fill="white"/>
<path d="M6.47686 18.3709C6.49865 18.4584 6.444 18.5459 6.3565 18.5569L4.11426 18.9944C4.02676 19.0163 3.95021 18.9506 3.92842 18.8631C3.90652 18.7756 3.96116 18.6881 4.04866 18.6771L6.29091 18.2396C6.37841 18.2288 6.46602 18.2834 6.47686 18.3709Z" fill="#F3F3F3"/>
<path d="M6.50198 18.371C6.52388 18.4694 6.45829 18.5569 6.37079 18.5787L4.12853 19.0162C4.04103 19.0381 3.95353 18.9725 3.93174 18.8741C3.90983 18.7756 3.97543 18.6881 4.06293 18.6663L6.30519 18.2288C6.39258 18.2069 6.48019 18.2725 6.50198 18.371ZM3.95353 18.8632C3.96448 18.9397 4.04103 18.9944 4.11758 18.9835L6.35983 18.546C6.43638 18.535 6.49103 18.4475 6.46924 18.371C6.45829 18.2944 6.38174 18.2397 6.30508 18.2506L4.06293 18.6881C3.98638 18.71 3.93174 18.7867 3.95353 18.8632Z" fill="white"/>
<path d="M5.07732 17.5283C5.08816 17.6157 5.03352 17.6923 4.94602 17.7033L3.93982 17.8236C3.85221 17.8345 3.77566 17.7689 3.76482 17.6813C3.75387 17.5939 3.80852 17.5173 3.89602 17.5062L4.90232 17.386C4.97887 17.375 5.06637 17.4406 5.07732 17.5283Z" fill="#F3F3F3"/>
<path d="M5.09121 17.5274C5.10205 17.6257 5.03645 17.7132 4.94895 17.7241L3.94276 17.8445C3.85515 17.8554 3.76776 17.7898 3.75681 17.6914C3.74585 17.5929 3.81145 17.5055 3.89895 17.4945L4.90526 17.3742C4.99265 17.3632 5.08037 17.4291 5.09121 17.5274ZM3.76765 17.6804C3.7786 17.757 3.85526 17.8227 3.93181 17.8116L4.938 17.6914C5.01455 17.6804 5.06931 17.6039 5.05836 17.5274C5.0474 17.4507 4.97086 17.3851 4.89431 17.3961L3.888 17.5164C3.81145 17.5274 3.75681 17.6039 3.76765 17.6804Z" fill="white"/>
<path d="M6.30076 16.4667C6.30076 16.5543 6.23528 16.6309 6.14766 16.6309H3.86184C3.77434 16.6309 3.70874 16.5543 3.70874 16.4668C3.70874 16.3794 3.77434 16.3027 3.86184 16.3027H6.14778C6.23528 16.3027 6.30076 16.3793 6.30076 16.4667Z" fill="#F3F3F3"/>
<path d="M6.31498 16.468C6.31498 16.5666 6.23832 16.643 6.15082 16.643H3.86498C3.77748 16.643 3.70093 16.5665 3.70093 16.468C3.70093 16.3697 3.77748 16.293 3.86498 16.293H6.15093C6.23843 16.293 6.31498 16.3697 6.31498 16.468ZM3.72272 16.4572C3.72272 16.5337 3.78832 16.6103 3.86498 16.6103H6.15082C6.22737 16.6103 6.29307 16.5447 6.29307 16.4572C6.29307 16.3806 6.22737 16.304 6.15082 16.304H3.86498C3.78843 16.3149 3.72272 16.3806 3.72272 16.4572Z" fill="white"/>
<path d="M5.08818 15.3628C5.07711 15.4503 5.01151 15.5159 4.92401 15.5159L3.90674 15.4394C3.81935 15.4284 3.75376 15.3519 3.7646 15.2644C3.77555 15.1769 3.84126 15.1113 3.92876 15.1113L4.94592 15.1878C5.02247 15.1988 5.08818 15.2753 5.08818 15.3628Z" fill="#E2E2E2"/>
<path d="M5.10189 15.3621C5.09094 15.4605 5.01439 15.5261 4.92689 15.5261L3.90964 15.4496C3.82225 15.4386 3.74571 15.3621 3.75666 15.2636C3.7675 15.1653 3.84416 15.0996 3.93166 15.0996L4.9488 15.1761C5.0363 15.1871 5.10189 15.2746 5.10189 15.3621ZM3.7675 15.2636C3.75666 15.3402 3.82225 15.4168 3.8988 15.4168L4.91605 15.4934C4.99249 15.4934 5.0582 15.4386 5.06915 15.3511C5.0801 15.2746 5.01439 15.198 4.93785 15.198L3.92059 15.1215C3.84416 15.1215 3.77845 15.187 3.7675 15.2636Z" fill="white"/>
<path d="M6.5003 14.5646C6.4784 14.6521 6.40185 14.7068 6.31435 14.6959L4.0722 14.2365C3.98471 14.2146 3.92995 14.1381 3.95185 14.0506C3.97375 13.9631 4.0503 13.9083 4.1378 13.9194L6.38006 14.3678C6.45661 14.3896 6.51125 14.4771 6.5003 14.5646Z" fill="#F3F3F3"/>
<path d="M6.50978 14.5638C6.48787 14.6622 6.40037 14.717 6.31287 14.706L4.07074 14.2576C3.98324 14.2357 3.91765 14.1482 3.93955 14.0498C3.96134 13.9513 4.04884 13.8966 4.13634 13.9076L6.37858 14.356C6.46608 14.3779 6.52073 14.4654 6.50978 14.5638ZM3.96134 14.0497C3.95039 14.1263 3.99408 14.2028 4.07074 14.2247L6.31299 14.6732C6.38953 14.6841 6.46608 14.6404 6.48798 14.5528C6.49882 14.4763 6.45513 14.3997 6.37847 14.3778L4.13645 13.9295C4.04895 13.9185 3.98324 13.9732 3.96134 14.0497Z" fill="white"/>
<path d="M5.51673 13.2522C5.51171 13.2731 5.50263 13.2927 5.49001 13.31C5.4774 13.3274 5.46149 13.342 5.4432 13.3532C5.42491 13.3643 5.4046 13.3718 5.38343 13.3751C5.36226 13.3784 5.34065 13.3775 5.31982 13.3725L4.33541 13.099C4.24791 13.0771 4.20421 12.9897 4.226 12.9022C4.23102 12.8813 4.2401 12.8617 4.25272 12.8444C4.26534 12.8271 4.28124 12.8124 4.29953 12.8012C4.31782 12.7901 4.33813 12.7826 4.3593 12.7793C4.38047 12.776 4.40208 12.7769 4.42291 12.7819L5.40732 13.0554C5.49482 13.0771 5.53852 13.1647 5.51673 13.2522Z" fill="#F3F3F3"/>
<path d="M5.52609 13.2516C5.5043 13.339 5.40585 13.4047 5.31834 13.3718L4.33392 13.0984C4.24642 13.0765 4.19166 12.9781 4.21357 12.8907C4.23547 12.8031 4.33392 12.7375 4.42142 12.7703L5.40585 13.0438C5.49335 13.0657 5.54811 13.1533 5.52609 13.2516ZM4.24642 12.8905C4.22452 12.9671 4.26832 13.0546 4.34487 13.0764L5.3293 13.3498C5.40585 13.3717 5.48239 13.3279 5.5043 13.2404C5.52609 13.1639 5.48239 13.0764 5.40585 13.0546L4.42142 12.7812C4.34487 12.7702 4.26832 12.8138 4.24642 12.8905Z" fill="white"/>
<path d="M7.05573 12.7262C7.02299 12.8136 6.92442 12.8464 6.84799 12.8136L4.73692 11.9386C4.66037 11.9058 4.61668 11.8074 4.64942 11.7308C4.68228 11.6433 4.78073 11.6105 4.85728 11.6433L6.96823 12.5183C7.05573 12.5511 7.08858 12.6496 7.05573 12.7262Z" fill="#F3F3F3"/>
<path d="M7.06816 12.7366C7.05214 12.7787 7.02012 12.8126 6.9791 12.8311C6.93808 12.8495 6.89143 12.851 6.84935 12.8351L4.73838 11.9601C4.65088 11.9274 4.61814 11.8289 4.65088 11.7305C4.6669 11.6884 4.69893 11.6545 4.73994 11.636C4.78096 11.6176 4.82762 11.6161 4.86969 11.632L6.98066 12.507C7.06816 12.5507 7.1009 12.6492 7.06816 12.7366ZM4.67279 11.7414C4.64005 11.818 4.67279 11.9055 4.74934 11.9382L6.8603 12.8132C6.93685 12.846 7.0134 12.8022 7.04625 12.7257C7.079 12.6491 7.04625 12.5616 6.96971 12.5289L4.85874 11.6539C4.78219 11.632 4.69469 11.6649 4.67279 11.7414Z" fill="white"/>
<path d="M6.34706 11.2494C6.30336 11.326 6.21586 11.3588 6.13931 11.326L5.23146 10.8667C5.15491 10.8338 5.12206 10.7354 5.16586 10.6478C5.20956 10.5713 5.29706 10.5384 5.3736 10.5713L6.28135 11.0307C6.35801 11.0744 6.39086 11.173 6.34706 11.2494Z" fill="#F3F3F3"/>
<path d="M6.36007 11.2611C6.31626 11.3486 6.21781 11.3815 6.13031 11.3376L5.22257 10.8782C5.13507 10.8345 5.10222 10.7361 5.14603 10.6486C5.18972 10.5611 5.28828 10.5282 5.37567 10.572L6.28341 11.0314C6.37102 11.0642 6.40376 11.1737 6.36007 11.2611ZM5.17877 10.6595C5.14603 10.7361 5.16793 10.8236 5.24448 10.8564L6.15221 11.3159C6.21792 11.3486 6.30542 11.3159 6.34912 11.2501C6.38186 11.1736 6.36007 11.0861 6.28352 11.0532L5.36461 10.5941C5.29901 10.5613 5.21162 10.583 5.17877 10.6595Z" fill="white"/>
<path d="M7.95539 11.0421C7.90074 11.1187 7.81324 11.1406 7.73669 11.0859L5.84439 9.82811C5.76795 9.7843 5.757 9.68585 5.8007 9.6093C5.8445 9.53275 5.94296 9.51085 6.01951 9.5655L7.92265 10.8343C7.98824 10.8781 8.01015 10.9766 7.95539 11.0421Z" fill="#F3F3F3"/>
<path d="M7.96639 11.0531C7.91175 11.1298 7.80235 11.1516 7.72591 11.1079L5.83367 9.83905C5.75712 9.78441 5.73522 9.68596 5.78986 9.59857C5.84462 9.52191 5.95402 9.5 6.03057 9.54381L7.9227 10.8125C8.0102 10.8673 8.02115 10.9766 7.96639 11.0531ZM5.81176 9.60941C5.76807 9.675 5.77902 9.77346 5.84451 9.81715L7.7477 11.0861C7.8133 11.1299 7.9008 11.108 7.9446 11.0424C7.9883 10.9767 7.97735 10.8782 7.91186 10.8345L6.00855 9.56571C5.94296 9.52191 5.85557 9.54381 5.81176 9.60941Z" fill="white"/>
<path d="M7.55231 9.45716C7.49767 9.52275 7.39922 9.54465 7.33362 9.4899L6.53516 8.86657C6.46956 8.81182 6.4586 8.71337 6.51324 8.64777C6.56789 8.58218 6.66634 8.56027 6.73205 8.61503L7.5304 9.23835C7.59611 9.29311 7.60707 9.39145 7.55231 9.45716Z" fill="#F3F3F3"/>
<path d="M7.56083 9.46639C7.50619 9.54305 7.39679 9.554 7.32024 9.49925L6.52181 8.87592C6.44526 8.82127 6.43431 8.71187 6.48906 8.63544C6.54371 8.55878 6.65311 8.54783 6.72954 8.60259L7.52798 9.2259C7.60464 9.28066 7.61559 9.38973 7.56083 9.46639ZM6.51085 8.64615C6.45621 8.71175 6.46716 8.79926 6.53276 8.8539L7.33119 9.47746C7.39679 9.52115 7.48428 9.51019 7.53893 9.44459C7.59369 9.379 7.58273 9.29151 7.51714 9.23686L6.7187 8.61331C6.65311 8.56962 6.56538 8.58056 6.51085 8.64615Z" fill="white"/>
<path d="M9.18036 9.56513C9.11488 9.63084 9.01631 9.63084 8.96166 9.56513L7.33209 7.95737C7.26649 7.89178 7.27733 7.79332 7.33209 7.73856C7.39769 7.67308 7.49614 7.67308 7.55079 7.73856L9.16964 9.34643C9.23524 9.40108 9.23501 9.51037 9.18036 9.56513Z" fill="#F3F3F3"/>
<path d="M9.17991 9.57562C9.14782 9.60713 9.10464 9.62478 9.05966 9.62478C9.01469 9.62478 8.97151 9.60713 8.93942 9.57562L7.32052 7.96766C7.28894 7.93556 7.27124 7.89234 7.27124 7.84731C7.27124 7.80228 7.28894 7.75905 7.32052 7.72695C7.35261 7.69541 7.39581 7.67773 7.44081 7.67773C7.48582 7.67773 7.52902 7.69541 7.56111 7.72695L9.17991 9.3348C9.25645 9.40039 9.25645 9.51002 9.17991 9.57562ZM7.34265 7.74886C7.28789 7.80361 7.28789 7.90206 7.34265 7.9566L8.96133 9.56444C9.01608 9.6192 9.11442 9.6192 9.16907 9.56444C9.22382 9.50979 9.22382 9.41134 9.16907 9.3567L7.55039 7.73802C7.49574 7.68337 7.40813 7.68326 7.34265 7.74886Z" fill="white"/>
<path d="M9.08284 7.93544C9.01724 7.99019 8.91879 7.99019 8.86403 7.92448L8.19679 7.15889C8.14226 7.09329 8.15309 6.99484 8.2188 6.94019C8.28429 6.88544 8.38285 6.88544 8.43749 6.95103L9.10474 7.71674C9.15938 7.77139 9.14843 7.86984 9.08284 7.93544Z" fill="#F3F3F3"/>
<path d="M9.09325 7.9363C9.0167 8.0019 8.91825 7.99106 8.85254 7.92535L8.1854 7.15975C8.1198 7.09415 8.13075 6.98475 8.2073 6.91915C8.28385 6.85344 8.3823 6.86439 8.4479 6.9301L9.11516 7.69559C9.1698 7.77225 9.1698 7.88166 9.09325 7.9363ZM8.21825 6.94105C8.15254 6.9957 8.15254 7.0832 8.19635 7.1488L8.86361 7.9144C8.91825 7.96916 9.00575 7.98011 9.07135 7.92535C9.13695 7.87071 9.13695 7.78309 9.09325 7.71761L8.426 6.95189C8.37135 6.88641 8.28374 6.88641 8.21825 6.94105Z" fill="white"/>
<path d="M10.6558 8.3511C10.5792 8.40574 10.4808 8.38384 10.437 8.30729L9.15731 6.41505C9.11351 6.3385 9.13541 6.24005 9.201 6.19635C9.27755 6.14171 9.376 6.16361 9.41981 6.24016L10.6885 8.13229C10.7433 8.20884 10.7214 8.30741 10.6558 8.3511Z" fill="#F3F3F3"/>
<path d="M10.658 8.36312C10.5814 8.41788 10.472 8.39587 10.4173 8.31943L9.14867 6.42716C9.09403 6.35061 9.11593 6.24132 9.20331 6.18667C9.27986 6.13192 9.38926 6.15382 9.44401 6.23037L10.7126 8.12253C10.7673 8.21003 10.7454 8.30848 10.658 8.36312ZM9.21415 6.20846C9.14856 6.25216 9.12666 6.33966 9.17046 6.40537L10.4391 8.29753C10.4829 8.36312 10.5704 8.37408 10.6468 8.33027C10.7125 8.28658 10.7344 8.19907 10.6906 8.13348L9.42211 6.25216C9.37831 6.18667 9.27963 6.16466 9.21415 6.20846Z" fill="white"/>
<path d="M10.8876 6.73246C10.8111 6.77615 10.7127 6.75436 10.669 6.67781L10.1658 5.79186C10.1221 5.71531 10.1548 5.61686 10.2315 5.57306C10.308 5.52936 10.4065 5.55115 10.4502 5.62781L10.9532 6.51365C10.9861 6.5902 10.964 6.68865 10.8876 6.73246Z" fill="#F3F3F3"/>
<path d="M10.8853 6.74342C10.7978 6.78711 10.6993 6.76532 10.6557 6.68866L10.1524 5.80282C10.1088 5.72615 10.1307 5.61686 10.2182 5.57306C10.3057 5.52936 10.4041 5.55115 10.4478 5.62781L10.9509 6.51366C10.9947 6.59021 10.9727 6.68866 10.8853 6.74342ZM10.2291 5.58401C10.1634 5.6277 10.1307 5.7152 10.1744 5.78091L10.6776 6.66687C10.7212 6.73235 10.8087 6.75437 10.8743 6.72152C10.9401 6.67782 10.9728 6.59021 10.9291 6.52461L10.4259 5.63865C10.3932 5.57317 10.2947 5.5402 10.2291 5.58401Z" fill="white"/>
<path d="M12.3407 7.45498C12.2534 7.48772 12.1658 7.45498 12.133 7.37843L11.2471 5.26737C11.2144 5.19082 11.2581 5.09237 11.3346 5.05951C11.4221 5.02677 11.5096 5.05951 11.5423 5.13606L12.4282 7.24701C12.4611 7.32356 12.4174 7.42224 12.3407 7.45498Z" fill="#F3F3F3"/>
<path d="M12.3392 7.46485C12.2518 7.4976 12.1534 7.46485 12.1095 7.37724L11.2236 5.26642C11.2077 5.22434 11.2091 5.17768 11.2276 5.13667C11.246 5.09565 11.28 5.06363 11.322 5.04761C11.4095 5.01487 11.508 5.04761 11.5518 5.13511L12.4376 7.24605C12.4705 7.3226 12.4267 7.42105 12.3392 7.46485ZM11.3439 5.06951C11.2674 5.10226 11.2345 5.18987 11.2674 5.25547L12.1532 7.36629C12.186 7.44284 12.2735 7.47558 12.35 7.44284C12.4266 7.4101 12.4596 7.32248 12.4266 7.25689L11.5407 5.14595C11.4969 5.0694 11.4205 5.03666 11.3439 5.06951Z" fill="white"/>
<path d="M12.8762 5.90113C12.7887 5.93387 12.7012 5.89007 12.6685 5.80268L12.3513 4.84008C12.3185 4.76353 12.3732 4.66508 12.4497 4.64329C12.5262 4.62139 12.6247 4.65424 12.6574 4.74174L12.9747 5.70423C13.0074 5.78078 12.9637 5.86839 12.8762 5.90113Z" fill="#F3F3F3"/>
<path d="M12.8871 5.91166C12.8451 5.92752 12.7984 5.92606 12.7574 5.9076C12.7165 5.88915 12.6844 5.85521 12.6684 5.81321L12.3512 4.85071C12.3184 4.76321 12.3731 4.66487 12.4607 4.63202C12.5027 4.61616 12.5494 4.61762 12.5904 4.63608C12.6314 4.65453 12.6634 4.68847 12.6794 4.73047L12.9965 5.69297C13.0184 5.78047 12.9746 5.87892 12.8871 5.91166ZM12.4606 4.65392C12.384 4.67571 12.3402 4.76321 12.3621 4.83976L12.6794 5.80237C12.7012 5.87892 12.7887 5.91166 12.8653 5.88976C12.9419 5.86797 12.9856 5.78047 12.9637 5.70392L12.6465 4.74131C12.6409 4.72274 12.6315 4.70556 12.6189 4.69087C12.6062 4.67619 12.5906 4.66433 12.5731 4.65608C12.5555 4.64782 12.5364 4.64335 12.5171 4.64296C12.4977 4.64257 12.4784 4.64638 12.4606 4.65392Z" fill="white"/>
<path d="M14.1669 6.89703C14.0794 6.91893 13.9919 6.86428 13.981 6.77667L13.5216 4.53454C13.4997 4.44705 13.5654 4.3705 13.6528 4.34859C13.7404 4.32669 13.8278 4.38134 13.8387 4.46895L14.2982 6.71119C14.3091 6.78763 14.2544 6.87513 14.1669 6.89703Z" fill="#F3F3F3"/>
<path d="M14.1654 6.90858C14.0669 6.93049 13.9794 6.86478 13.9575 6.77728L13.4981 4.53513C13.4762 4.44763 13.5419 4.34918 13.6294 4.33823C13.7279 4.31632 13.8154 4.38203 13.8372 4.46953L14.2967 6.71179C14.3185 6.79918 14.2638 6.88679 14.1654 6.90858ZM13.6513 4.36013C13.5747 4.37108 13.52 4.44763 13.531 4.53513L13.9904 6.77739C14.0013 6.85382 14.0887 6.90858 14.1654 6.88668C14.2419 6.87573 14.2966 6.79918 14.2856 6.71168L13.8262 4.46942C13.8044 4.39299 13.728 4.34918 13.6513 4.36013Z" fill="white"/>
<path d="M14.9998 5.47406C14.9123 5.48501 14.8357 5.43036 14.8138 5.34286L14.6826 4.33654C14.6717 4.24904 14.7373 4.17249 14.8249 4.16154C14.9123 4.15059 14.9888 4.20535 15.0107 4.29285L15.1419 5.29905C15.1529 5.38656 15.0873 5.46311 14.9998 5.47406Z" fill="#F3F3F3"/>
<path d="M14.999 5.48597C14.9005 5.49693 14.813 5.43133 14.8021 5.34372L14.6709 4.33752C14.6599 4.25002 14.7255 4.16252 14.824 4.15156C14.9224 4.14072 15.0099 4.20632 15.0209 4.29382L15.1521 5.30002C15.163 5.38752 15.0974 5.47502 14.999 5.48597ZM14.8349 4.17347C14.7584 4.18442 14.6927 4.26097 14.7036 4.33752L14.8349 5.34383C14.8459 5.42038 14.9224 5.47502 14.999 5.46407C15.0755 5.45323 15.1412 5.37657 15.1303 5.30002L14.999 4.29382C14.988 4.21727 14.9115 4.16252 14.8349 4.17347Z" fill="white"/>
<path d="M16.1783 29.4391C23.3303 29.4391 29.1283 23.6411 29.1283 16.4891C29.1283 9.33697 23.3303 3.53906 16.1783 3.53906C9.02619 3.53906 3.22827 9.33697 3.22827 16.4891C3.22827 23.6411 9.02619 29.4391 16.1783 29.4391Z" fill="url(#paint2_linear_1_1499)" fill-opacity="0.2"/>
<path d="M25.1477 8.27539L14.7024 14.9692H14.6914V14.9801L14.6805 14.991L8.16187 25.7427L17.7431 18.0317L17.754 18.0209V18.0099L25.1477 8.27539Z" fill="black" fill-opacity="0.05"/>
<path d="M24.9517 7.65234L14.6267 14.9914L17.6892 18.032L24.9517 7.65234Z" fill="#CD151E"/>
<path d="M14.6384 14.9696L16.1806 16.4899L24.9524 7.65234L14.6384 14.9696Z" fill="#FA5153"/>
<path d="M14.6353 14.9689L17.6978 18.0093L7.3728 25.3485L14.6353 14.9689Z" fill="#ACACAC"/>
<path d="M7.3728 25.3485L16.1774 16.4892L14.6352 14.9688L7.3728 25.3485Z" fill="#EEEEEE"/>
</g>
</g>
</g>
<defs>
<linearGradient id="paint0_linear_1_1499" x1="16.1033" y1="30.5" x2="16.1033" y2="2.5" gradientUnits="userSpaceOnUse">
<stop offset="0.25" stop-color="#DBDBDA"/>
<stop offset="1" stop-color="white"/>
</linearGradient>
<radialGradient id="paint1_radial_1_1499" cx="0" cy="0" r="1" gradientUnits="userSpaceOnUse" gradientTransform="translate(17.9236 13.6562) scale(15.8073 15.8073)">
<stop stop-color="#2ABCE1"/>
<stop offset="0.11363" stop-color="#2ABBE1"/>
<stop offset="1" stop-color="#3375F8"/>
</radialGradient>
<linearGradient id="paint2_linear_1_1499" x1="15.9322" y1="12.7861" x2="9.88794" y2="23.6302" gradientUnits="userSpaceOnUse">
<stop stop-opacity="0"/>
<stop offset="1"/>
</linearGradient>
<clipPath id="clip0_1_1499">
<rect width="32" height="32" fill="white" transform="translate(0.103271 0.5)"/>
</clipPath>
<clipPath id="clip1_1_1499">
<rect width="32" height="32" fill="white" transform="translate(0.103271 0.5)"/>
</clipPath>
</defs>
</svg>
