<svg width="140" height="37" viewBox="0 0 140 37" fill="none" xmlns="http://www.w3.org/2000/svg">
<g clip-path="url(#clip0_1_688)">
<g clip-path="url(#clip1_1_688)">
<g clip-path="url(#clip2_1_688)">
<path d="M9.99412 17.347L4.11661 20.637L5.42911 14.0303L0.483276 9.45699L7.17244 8.66366L9.99412 2.547L12.8158 8.66366L19.5049 9.45699L14.5591 14.0303L15.8716 20.637L9.99412 17.347Z" fill="#FF9345"/>
</g>
</g>
</g>
<g clip-path="url(#clip3_1_688)">
<g clip-path="url(#clip4_1_688)">
<g clip-path="url(#clip5_1_688)">
<path d="M37.9941 17.347L32.1166 20.637L33.4291 14.0303L28.4833 9.45699L35.1724 8.66366L37.9941 2.547L40.8158 8.66366L47.5049 9.45699L42.5591 14.0303L43.8716 20.637L37.9941 17.347Z" fill="#FF9345"/>
</g>
</g>
</g>
<g clip-path="url(#clip6_1_688)">
<g clip-path="url(#clip7_1_688)">
<g clip-path="url(#clip8_1_688)">
<path d="M65.9941 17.347L60.1166 20.637L61.4291 14.0303L56.4833 9.45699L63.1724 8.66366L65.9941 2.547L68.8158 8.66366L75.5049 9.45699L70.5591 14.0303L71.8716 20.637L65.9941 17.347Z" fill="#FF9345"/>
</g>
</g>
</g>
<g clip-path="url(#clip9_1_688)">
<g clip-path="url(#clip10_1_688)">
<g clip-path="url(#clip11_1_688)">
<path d="M93.9941 17.347L88.1166 20.637L89.4291 14.0303L84.4833 9.45699L91.1724 8.66366L93.9941 2.547L96.8158 8.66366L103.505 9.45699L98.5591 14.0303L99.8716 20.637L93.9941 17.347Z" fill="#FF9345"/>
</g>
</g>
</g>
<g clip-path="url(#clip12_1_688)">
<g clip-path="url(#clip13_1_688)">
<g clip-path="url(#clip14_1_688)">
<path d="M121.994 17.347L116.117 20.637L117.429 14.0303L112.483 9.45699L119.172 8.66366L121.994 2.547L124.816 8.66366L131.505 9.45699L126.559 14.0303L127.872 20.637L121.994 17.347Z" fill="#FF9345"/>
</g>
</g>
</g>
<defs>
<clipPath id="clip0_1_688">
<rect width="20" height="20" fill="white" transform="translate(-0.00500488 2.13)"/>
</clipPath>
<clipPath id="clip1_1_688">
<rect width="20" height="20" fill="white" transform="translate(-0.00500488 2.13)"/>
</clipPath>
<clipPath id="clip2_1_688">
<rect width="20" height="20" fill="white" transform="translate(-0.00500488 2.13)"/>
</clipPath>
<clipPath id="clip3_1_688">
<rect width="20" height="20" fill="white" transform="translate(27.995 2.13)"/>
</clipPath>
<clipPath id="clip4_1_688">
<rect width="20" height="20" fill="white" transform="translate(27.995 2.13)"/>
</clipPath>
<clipPath id="clip5_1_688">
<rect width="20" height="20" fill="white" transform="translate(27.995 2.13)"/>
</clipPath>
<clipPath id="clip6_1_688">
<rect width="20" height="20" fill="white" transform="translate(55.995 2.13)"/>
</clipPath>
<clipPath id="clip7_1_688">
<rect width="20" height="20" fill="white" transform="translate(55.995 2.13)"/>
</clipPath>
<clipPath id="clip8_1_688">
<rect width="20" height="20" fill="white" transform="translate(55.995 2.13)"/>
</clipPath>
<clipPath id="clip9_1_688">
<rect width="20" height="20" fill="white" transform="translate(83.995 2.13)"/>
</clipPath>
<clipPath id="clip10_1_688">
<rect width="20" height="20" fill="white" transform="translate(83.995 2.13)"/>
</clipPath>
<clipPath id="clip11_1_688">
<rect width="20" height="20" fill="white" transform="translate(83.995 2.13)"/>
</clipPath>
<clipPath id="clip12_1_688">
<rect width="20" height="20" fill="white" transform="translate(111.995 2.13)"/>
</clipPath>
<clipPath id="clip13_1_688">
<rect width="20" height="20" fill="white" transform="translate(111.995 2.13)"/>
</clipPath>
<clipPath id="clip14_1_688">
<rect width="20" height="20" fill="white" transform="translate(111.995 2.13)"/>
</clipPath>
</defs>
</svg>
