<svg width="140" height="23" viewBox="0 0 140 23" fill="none" xmlns="http://www.w3.org/2000/svg">
<g clip-path="url(#clip0_1_1229)">
<g clip-path="url(#clip1_1_1229)">
<g clip-path="url(#clip2_1_1229)">
<path d="M9.99912 17.3469L4.12161 20.6369L5.43411 14.0302L0.488281 9.45687L7.17744 8.66354L9.99912 2.54688L12.8208 8.66354L19.5099 9.45687L14.5641 14.0302L15.8766 20.6369L9.99912 17.3469Z" fill="#FF9345"/>
</g>
</g>
</g>
<g clip-path="url(#clip3_1_1229)">
<g clip-path="url(#clip4_1_1229)">
<g clip-path="url(#clip5_1_1229)">
<path d="M37.9991 17.3469L32.1216 20.6369L33.4341 14.0302L28.4883 9.45687L35.1774 8.66354L37.9991 2.54688L40.8208 8.66354L47.5099 9.45687L42.5641 14.0302L43.8766 20.6369L37.9991 17.3469Z" fill="#FF9345"/>
</g>
</g>
</g>
<g clip-path="url(#clip6_1_1229)">
<g clip-path="url(#clip7_1_1229)">
<g clip-path="url(#clip8_1_1229)">
<path d="M65.9991 17.3469L60.1216 20.6369L61.4341 14.0302L56.4883 9.45687L63.1774 8.66354L65.9991 2.54688L68.8208 8.66354L75.5099 9.45687L70.5641 14.0302L71.8766 20.6369L65.9991 17.3469Z" fill="#FF9345"/>
</g>
</g>
</g>
<g clip-path="url(#clip9_1_1229)">
<g clip-path="url(#clip10_1_1229)">
<g clip-path="url(#clip11_1_1229)">
<path d="M93.9991 17.3469L88.1216 20.6369L89.4341 14.0302L84.4883 9.45687L91.1774 8.66354L93.9991 2.54688L96.8208 8.66354L103.51 9.45687L98.5641 14.0302L99.8766 20.6369L93.9991 17.3469Z" fill="#FF9345"/>
</g>
</g>
</g>
<g clip-path="url(#clip12_1_1229)">
<g clip-path="url(#clip13_1_1229)">
<g clip-path="url(#clip14_1_1229)">
<path d="M121.999 17.3469L116.122 20.6369L117.434 14.0302L112.488 9.45687L119.177 8.66354L121.999 2.54688L124.821 8.66354L131.51 9.45687L126.564 14.0302L127.877 20.6369L121.999 17.3469Z" fill="#FF9345"/>
</g>
</g>
</g>
<defs>
<clipPath id="clip0_1_1229">
<rect width="20" height="20" fill="white" transform="translate(0 2.12988)"/>
</clipPath>
<clipPath id="clip1_1_1229">
<rect width="20" height="20" fill="white" transform="translate(0 2.12988)"/>
</clipPath>
<clipPath id="clip2_1_1229">
<rect width="20" height="20" fill="white" transform="translate(0 2.12988)"/>
</clipPath>
<clipPath id="clip3_1_1229">
<rect width="20" height="20" fill="white" transform="translate(28 2.12988)"/>
</clipPath>
<clipPath id="clip4_1_1229">
<rect width="20" height="20" fill="white" transform="translate(28 2.12988)"/>
</clipPath>
<clipPath id="clip5_1_1229">
<rect width="20" height="20" fill="white" transform="translate(28 2.12988)"/>
</clipPath>
<clipPath id="clip6_1_1229">
<rect width="20" height="20" fill="white" transform="translate(56 2.12988)"/>
</clipPath>
<clipPath id="clip7_1_1229">
<rect width="20" height="20" fill="white" transform="translate(56 2.12988)"/>
</clipPath>
<clipPath id="clip8_1_1229">
<rect width="20" height="20" fill="white" transform="translate(56 2.12988)"/>
</clipPath>
<clipPath id="clip9_1_1229">
<rect width="20" height="20" fill="white" transform="translate(84 2.12988)"/>
</clipPath>
<clipPath id="clip10_1_1229">
<rect width="20" height="20" fill="white" transform="translate(84 2.12988)"/>
</clipPath>
<clipPath id="clip11_1_1229">
<rect width="20" height="20" fill="white" transform="translate(84 2.12988)"/>
</clipPath>
<clipPath id="clip12_1_1229">
<rect width="20" height="20" fill="white" transform="translate(112 2.12988)"/>
</clipPath>
<clipPath id="clip13_1_1229">
<rect width="20" height="20" fill="white" transform="translate(112 2.12988)"/>
</clipPath>
<clipPath id="clip14_1_1229">
<rect width="20" height="20" fill="white" transform="translate(112 2.12988)"/>
</clipPath>
</defs>
</svg>
