<svg width="66" height="59" viewBox="0 0 66 59" fill="none" xmlns="http://www.w3.org/2000/svg">
<g clip-path="url(#clip0_1_1057)">
<mask id="mask0_1_1057" style="mask-type:luminance" maskUnits="userSpaceOnUse" x="0" y="1" width="66" height="57">
<path d="M65.886 1.3374H0.871094V57.6108H65.886V1.3374Z" fill="white"/>
</mask>
<g mask="url(#mask0_1_1057)">
<path d="M49.6235 1.3374C41.9146 14.6672 37.6554 21.3144 33.361 21.3144C29.0665 21.3144 24.8073 14.6672 17.1336 1.3374C24.8073 14.6672 28.4681 21.7014 26.3208 25.3942C24.1737 29.0872 16.2536 29.4741 0.871094 29.4741C16.8168 29.4741 24.7368 29.8609 26.5321 33.9408C28.2217 37.7393 24.5609 44.7382 17.1336 57.6108C24.8424 44.2811 29.1017 37.6338 33.3961 37.6338C37.6906 37.6338 41.9498 44.2811 49.6586 57.6108C41.4922 43.437 37.9018 36.4027 40.929 32.8856C43.6043 29.7906 51.4891 29.4741 65.9212 29.4741C49.6586 29.4741 41.7386 29.052 40.1546 24.726C38.7114 20.8573 42.3722 13.8934 49.6235 1.3374Z" fill="white"/>
</g>
</g>
<defs>
<clipPath id="clip0_1_1057">
<rect width="66" height="58.12" fill="white" transform="translate(0 0.379883)"/>
</clipPath>
</defs>
</svg>
