<svg width="17" height="18" viewBox="0 0 17 18" fill="none" xmlns="http://www.w3.org/2000/svg">
<g clip-path="url(#clip0_1_392)">
<path d="M2.60593 2.5H0V0.5H4.39407L4.84288 4.5H16V10.4384L3.76941 12.8694L2.60593 2.5ZM15.5 17.5C14.6716 17.5 14 16.8284 14 16C14 15.1716 14.6716 14.5 15.5 14.5C16.3284 14.5 17 15.1716 17 16C17 16.8284 16.3284 17.5 15.5 17.5ZM5.5 17.5C4.67157 17.5 4 16.8284 4 16C4 15.1716 4.67157 14.5 5.5 14.5C6.32843 14.5 7 15.1716 7 16C7 16.8284 6.32843 17.5 5.5 17.5Z" fill="black"/>
</g>
<defs>
<clipPath id="clip0_1_392">
<rect width="17" height="17" fill="white" transform="translate(0 0.5)"/>
</clipPath>
</defs>
</svg>
