<svg width="176" height="109" viewBox="0 0 176 109" fill="none" xmlns="http://www.w3.org/2000/svg">
<g opacity="0.8">
<path d="M32.9724 31.419C37.5295 33.4069 39.8327 33.3072 39.1487 31.2531C38.6643 29.8002 32.6882 26.8934 23.0731 23.4183C19.301 22.1152 16.197 20.8121 16.1293 20.6114C15.779 19.5593 27.7164 7.95726 29.9212 7.22181C31.524 6.68776 32.0088 4.13267 30.6232 3.48113C29.6216 2.98014 27.5342 4.23164 23.0928 8.1047C10.72 18.7394 9.63428 21.4954 16.5783 24.803C18.4479 25.7385 21.9875 27.175 24.4415 28.0271C26.8454 28.8959 30.6854 30.3999 32.9724 31.419ZM154.849 101.961C155.733 108.291 155.833 108.424 157.419 107.673C158.571 107.122 158.721 106.738 158.488 103.532C158.172 99.2404 155.353 90.4389 152.716 85.6958C144.087 69.9805 129.482 56.5356 111.319 47.6148C104.408 44.2402 99.5673 42.5688 93.6909 41.6325L89.1502 40.8637L85.7446 37.3226C79.5521 30.7588 73.3586 26.8671 63.5596 23.1748C52.258 18.9812 38.3353 15.9386 30.5055 15.9871C23.3767 15.969 16.9153 17.9556 17.566 19.9095C17.9499 21.0615 19.2189 21.1955 22.5074 20.545C31.0555 18.81 43.9944 20.5657 58.6516 25.4781C68.7344 28.8532 76.1293 33.0125 81.504 38.2902C83.9409 40.7621 83.9411 40.9291 81.0529 41.2792C74.3915 42.163 68.9481 47.5391 67.8948 54.2351C66.3569 64.321 73.1657 78.2498 82.9977 85.2152C91.3605 91.1114 99.0402 88.107 100.461 78.3387C101.682 69.9728 98.4289 56.1951 93.0382 47.0263C92.4876 46.0411 92.3378 45.4227 92.6884 45.3059C93.8909 44.9055 103.256 47.9632 108.681 50.5526C132.486 61.8791 152.231 83.9093 154.849 101.961ZM92.848 84.215C85.5853 86.6349 72.1983 71.002 71.5328 59.3125C71.2165 54.5199 72.5199 50.5791 75.2584 47.7743C76.6276 46.3718 81.1188 44.8202 84.3576 44.6872C86.7617 44.5541 87.0956 44.721 88.2305 46.4579C88.848 47.4767 89.7165 48.7456 90.0503 49.2466C92.3869 52.5869 95.8069 63.0245 96.6404 69.5372C97.674 77.319 96.1537 83.1133 92.848 84.215Z" fill="url(#paint0_linear_1_409)"/>
</g>
<defs>
<linearGradient id="paint0_linear_1_409" x1="23.9549" y1="24.9765" x2="135.257" y2="63.5971" gradientUnits="userSpaceOnUse">
<stop stop-color="#22DF79"/>
<stop offset="1" stop-color="#29DEEC"/>
</linearGradient>
</defs>
</svg>
