<svg width="23" height="24" viewBox="0 0 23 24" fill="none" xmlns="http://www.w3.org/2000/svg">
<g clip-path="url(#clip0_1_809)">
<path fill-rule="evenodd" clip-rule="evenodd" d="M12.0704 21.4499C9.09822 20.7356 6.23609 20.7823 3.22144 20.6967C2.63269 20.6801 2.14322 21.132 2.12549 21.7057C2.10776 22.2796 2.57238 22.7586 3.16113 22.7756C6.01973 22.8567 8.73999 22.7912 11.5632 23.4691C12.1342 23.6064 12.7123 23.265 12.8506 22.7077C12.9925 22.1507 12.6414 21.5868 12.0704 21.4499Z" fill="white"/>
<path fill-rule="evenodd" clip-rule="evenodd" d="M17.8307 15.3815C13.2981 10.5355 7.46743 5.96945 1.57998 2.77801C1.06572 2.4997 0.416648 2.68098 0.132916 3.18285C-0.150817 3.68471 0.0336254 4.31828 0.547889 4.59659C6.24027 7.68266 11.8795 12.0986 16.2596 16.7846C16.6568 17.2081 17.3307 17.2375 17.7634 16.8504C18.1961 16.4633 18.228 15.8051 17.8307 15.3815Z" fill="white"/>
<path fill-rule="evenodd" clip-rule="evenodd" d="M22.7832 14.1539C23.5316 9.72171 22.2548 5.15326 20.4496 1.12307C20.2119 0.597288 19.5842 0.357438 19.0486 0.58723C18.5095 0.817368 18.2648 1.43119 18.4989 1.95698C20.1445 5.62741 21.3646 9.77855 20.6836 13.8153C20.5879 14.3817 20.9816 14.9172 21.5597 15.0104C22.1378 15.104 22.6875 14.7199 22.7832 14.1539Z" fill="white"/>
</g>
<defs>
<clipPath id="clip0_1_809">
<rect width="23" height="24" fill="white"/>
</clipPath>
</defs>
</svg>
