<svg width="21" height="21" viewBox="0 0 21 21" fill="none" xmlns="http://www.w3.org/2000/svg">
<g clip-path="url(#clip0_1_1765)">
<g clip-path="url(#clip1_1_1765)">
<path d="M10.8563 2.24414C13.1205 2.24414 13.403 2.25248 14.2913 2.29414C15.1788 2.33581 15.783 2.47498 16.3147 2.68164C16.8647 2.89331 17.328 3.17998 17.7913 3.64248C18.2151 4.05906 18.543 4.56297 18.7522 5.11914C18.958 5.64998 19.098 6.25498 19.1397 7.14248C19.1788 8.03081 19.1897 8.31331 19.1897 10.5775C19.1897 12.8417 19.1813 13.1242 19.1397 14.0125C19.098 14.9 18.958 15.5042 18.7522 16.0359C18.5436 16.5923 18.2156 17.0964 17.7913 17.5125C17.3746 17.9361 16.8708 18.264 16.3147 18.4734C15.7838 18.6791 15.1788 18.8192 14.2913 18.8609C13.403 18.9 13.1205 18.9109 10.8563 18.9109C8.59212 18.9109 8.30962 18.9025 7.42129 18.8609C6.53379 18.8192 5.92962 18.6791 5.39795 18.4734C4.84156 18.2646 4.33756 17.9366 3.92129 17.5125C3.49746 17.096 3.16956 16.5921 2.96045 16.0359C2.75379 15.505 2.61462 14.9 2.57295 14.0125C2.53379 13.1242 2.52295 12.8417 2.52295 10.5775C2.52295 8.31331 2.53129 8.03081 2.57295 7.14248C2.61462 6.25414 2.75379 5.65081 2.96045 5.11914C3.16898 4.56263 3.49696 4.05858 3.92129 3.64248C4.33768 3.2185 4.84164 2.89058 5.39795 2.68164C5.92962 2.47498 6.53295 2.33581 7.42129 2.29414C8.30962 2.25498 8.59212 2.24414 10.8563 2.24414ZM10.8563 6.41081C9.75122 6.41081 8.69141 6.8498 7.91001 7.6312C7.12861 8.4126 6.68962 9.47241 6.68962 10.5775C6.68962 11.6826 7.12861 12.7424 7.91001 13.5238C8.69141 14.3052 9.75122 14.7442 10.8563 14.7442C11.9614 14.7442 13.0212 14.3052 13.8026 13.5238C14.584 12.7424 15.023 11.6826 15.023 10.5775C15.023 9.47241 14.584 8.4126 13.8026 7.6312C13.0212 6.8498 11.9614 6.41081 10.8563 6.41081ZM16.273 6.20248C16.273 5.92621 16.1632 5.66126 15.9679 5.46591C15.7725 5.27056 15.5076 5.16081 15.2313 5.16081C14.9551 5.16081 14.6901 5.27056 14.4948 5.46591C14.2994 5.66126 14.1897 5.92621 14.1897 6.20248C14.1897 6.47874 14.2994 6.74369 14.4948 6.93905C14.6901 7.1344 14.9551 7.24414 15.2313 7.24414C15.5076 7.24414 15.7725 7.1344 15.9679 6.93905C16.1632 6.74369 16.273 6.47874 16.273 6.20248ZM10.8563 8.07748C11.5194 8.07748 12.1553 8.34087 12.6241 8.80971C13.0929 9.27855 13.3563 9.91443 13.3563 10.5775C13.3563 11.2406 13.0929 11.8765 12.6241 12.3453C12.1553 12.814 11.5194 13.0775 10.8563 13.0775C10.1932 13.0775 9.55736 12.814 9.08852 12.3453C8.61968 11.8765 8.35629 11.2406 8.35629 10.5775C8.35629 9.91443 8.61968 9.27855 9.08852 8.80971C9.55736 8.34087 10.1932 8.07748 10.8563 8.07748Z" fill="black"/>
</g>
</g>
<defs>
<clipPath id="clip0_1_1765">
<rect width="20" height="20" fill="white" transform="translate(0.85498 0.578125)"/>
</clipPath>
<clipPath id="clip1_1_1765">
<rect width="20" height="20" fill="white" transform="translate(0.85498 0.578125)"/>
</clipPath>
</defs>
</svg>
