<svg width="21" height="21" viewBox="0 0 21 21" fill="none" xmlns="http://www.w3.org/2000/svg">
<path d="M6.63753 4.74367C6.63731 5.1857 6.4615 5.60954 6.14878 5.92194C5.83607 6.23435 5.41206 6.40973 4.97003 6.40951C4.528 6.40929 4.10417 6.23348 3.79176 5.92076C3.47936 5.60805 3.30397 5.18403 3.3042 4.74201C3.30442 4.29998 3.48022 3.87614 3.79294 3.56374C4.10566 3.25134 4.52967 3.07595 4.9717 3.07617C5.41372 3.07639 5.83756 3.2522 6.14996 3.56492C6.46237 3.87764 6.63775 4.30165 6.63753 4.74367ZM6.68753 7.64367H3.3542V18.0771H6.68753V7.64367ZM11.9542 7.64367H8.63753V18.0771H11.9209V12.6021C11.9209 9.55201 15.8959 9.26867 15.8959 12.6021V18.0771H19.1875V11.4687C19.1875 6.32701 13.3042 6.51867 11.9209 9.04367L11.9542 7.64367Z" fill="black"/>
</svg>
