<svg width="21" height="21" viewBox="0 0 21 21" fill="none" xmlns="http://www.w3.org/2000/svg">
<g clip-path="url(#clip0_1_1753)">
<g clip-path="url(#clip1_1_1753)">
<path d="M19.3213 5.29189C18.6851 5.5733 18.0104 5.75812 17.3196 5.84022C18.0477 5.40475 18.5927 4.7194 18.8529 3.91189C18.1696 4.31856 17.4204 4.60356 16.6396 4.75772C16.1151 4.19654 15.4199 3.82436 14.6621 3.69904C13.9042 3.57373 13.1262 3.7023 12.449 4.06477C11.7717 4.42724 11.2332 5.00329 10.9172 5.70338C10.6011 6.40347 10.5252 7.18837 10.7013 7.93606C9.31554 7.8666 7.9599 7.50649 6.72236 6.87911C5.48482 6.25173 4.39306 5.3711 3.51795 4.29439C3.20819 4.82643 3.04541 5.43125 3.04629 6.04689C3.04629 7.25522 3.66129 8.32272 4.59629 8.94772C4.04296 8.9303 3.50181 8.78087 3.01795 8.51189V8.55522C3.01812 9.35997 3.29659 10.1399 3.80616 10.7627C4.31572 11.3856 5.02502 11.8131 5.81379 11.9727C5.30013 12.1119 4.76154 12.1324 4.23879 12.0327C4.46117 12.7254 4.89462 13.3312 5.47845 13.7653C6.06227 14.1994 6.76723 14.44 7.49462 14.4535C6.77169 15.0213 5.94393 15.441 5.05869 15.6887C4.17344 15.9363 3.24806 16.0071 2.33545 15.8969C3.92853 16.9214 5.78303 17.4653 7.67712 17.4635C14.0879 17.4635 17.5938 12.1527 17.5938 7.54689C17.5938 7.39689 17.5896 7.24522 17.5829 7.09689C18.2653 6.6037 18.8543 5.99274 19.3221 5.29272L19.3213 5.29189Z" fill="black"/>
</g>
</g>
<defs>
<clipPath id="clip0_1_1753">
<rect width="20" height="20" fill="white" transform="translate(0.85498 0.578125)"/>
</clipPath>
<clipPath id="clip1_1_1753">
<rect width="20" height="20" fill="white" transform="translate(0.85498 0.578125)"/>
</clipPath>
</defs>
</svg>
